{"glyphs":{"0":{"ha":918,"x_min":null,"x_max":null,"o":"m -22 106 b 850 1110 -28 575 594 1110 b 935 1040 883 1110 918 1074 b 1088 839 1038 1025 1088 936 b 206 -115 1088 482 582 -115 b -22 106 71 -115 -21 -36 m 903 996 b 57 47 586 996 57 435 b 175 -75 57 -32 96 -75 b 1004 899 424 -75 1004 565 b 903 996 1004 975 956 996 "},"1":{"ha":654,"x_min":null,"x_max":null,"o":"m 57 364 b 56 369 50 364 56 369 b 189 465 122 415 157 440 b 885 1129 568 764 803 1129 l 893 1129 b 983 1085 936 1128 961 1108 l 971 1085 b 543 558 894 1072 721 847 b 219 -87 433 379 246 68 b 244 -153 213 -121 213 -149 b 157 -135 211 -165 182 -154 b 131 -43 128 -112 125 -79 b 307 386 149 67 218 231 b 446 617 357 475 401 549 b 57 364 274 468 118 364 "},"2":{"ha":925,"x_min":null,"x_max":null,"o":"m 928 1089 b 371 701 740 1089 371 788 b 478 707 371 657 456 696 b 365 640 461 689 408 654 b 263 701 319 626 263 646 b 281 764 263 718 268 739 b 910 1128 375 940 693 1128 b 1072 978 1018 1128 1072 1076 b 204 60 1072 664 392 175 b 481 90 296 83 403 90 b 535 89 501 90 519 89 b 864 -35 743 81 857 -4 b 599 40 860 -37 790 40 b -215 -169 143 40 -186 -169 b -253 -56 -251 -169 -276 -56 b 1014 1008 -8 -56 1014 794 b 928 1089 1014 1078 979 1089 "},"3":{"ha":899,"x_min":null,"x_max":null,"o":"m 476 851 b 576 871 476 821 540 835 b 463 794 563 836 511 801 b 386 863 424 789 386 819 b 863 1144 386 1001 651 1144 b 1019 1011 949 1144 1019 1110 b 639 639 1019 846 778 710 b 860 469 779 638 860 569 b 53 -132 860 178 333 -132 b -139 4 -28 -132 -146 -121 b 319 404 -128 192 207 404 b 322 400 326 404 326 400 b -83 28 256 400 -83 169 b 25 -35 -83 -22 -44 -35 b 781 513 332 -35 781 353 b 671 608 781 576 728 608 b 360 542 524 608 425 542 b 332 636 317 542 301 636 b 982 1035 486 636 951 915 b 896 1106 994 1086 944 1106 b 476 851 686 1106 476 903 "},"4":{"ha":874,"x_min":null,"x_max":null,"o":"m 826 436 b 683 428 769 436 710 432 b 456 -107 588 265 475 11 b 481 -174 449 -142 449 -169 b 392 -156 447 -186 418 -175 b 365 -62 363 -133 360 -99 b 533 403 383 49 479 297 b -1 254 101 322 17 254 b -50 336 -8 254 -69 322 b 963 1069 38 393 735 854 b 1065 1144 992 1097 1042 1142 b 1174 1100 1108 1147 1153 1125 b 1111 1067 1158 1107 1125 1079 b 944 869 1049 1006 996 939 b 696 458 843 736 725 510 b 749 460 713 460 731 460 b 964 426 844 460 942 444 b 826 436 935 433 881 436 m 553 444 b 850 925 586 518 746 796 b 194 382 656 754 279 429 b 553 444 272 406 381 429 "},"5":{"ha":911,"x_min":null,"x_max":null,"o":"m 606 1088 b 632 1097 606 1106 622 1104 b 831 1040 649 1085 686 1043 b 1096 1139 1004 1040 1107 1101 b 1181 1044 1131 1131 1181 1082 b 944 960 1181 1011 1057 960 b 669 1032 822 960 725 985 b 469 721 621 950 535 815 b 625 747 508 733 575 747 b 901 513 778 747 901 656 b 49 -146 901 178 408 -146 b -149 -10 -51 -146 -149 -100 b 428 457 -149 183 268 419 b 460 456 439 460 464 463 b 446 451 457 454 449 453 b -71 7 343 425 -71 175 b 17 -43 -71 -36 -24 -43 b 810 563 374 -43 810 318 b 644 715 810 643 754 715 b 333 593 486 710 360 604 b 249 657 275 589 229 657 b 606 1088 301 657 606 1046 "},"6":{"ha":847,"x_min":null,"x_max":null,"o":"m 861 774 b 768 867 829 774 771 835 b 771 889 767 878 768 885 b 797 868 771 881 785 868 b 1042 1015 882 868 1044 931 b 922 1076 1040 1076 985 1085 b 31 29 599 1031 4 390 b 132 -75 35 -29 63 -67 b 663 415 290 -94 642 214 b 535 526 672 504 597 526 b 99 283 311 526 99 269 b 583 569 96 322 329 569 b 778 392 685 569 782 519 b 133 -119 769 140 383 -135 b -68 100 17 -112 -65 -50 b 915 1122 -81 504 540 1122 b 1072 997 992 1122 1069 1083 b 861 774 1075 875 951 774 "},"7":{"ha":751,"x_min":null,"x_max":null,"o":"m 400 586 b 158 461 239 556 161 492 b 100 532 157 447 94 479 b 474 667 106 589 193 640 b 786 958 578 779 694 892 b 624 940 731 947 678 940 b 368 1047 407 940 368 1044 b 371 1050 368 1050 369 1050 b 569 982 374 1050 418 982 b 1146 1147 736 982 1149 1104 b 1181 1044 1167 1147 1188 1044 b 649 672 1144 1044 906 904 b 801 665 713 671 771 667 b 1101 590 994 653 1103 600 b 904 622 1101 589 1054 610 b 806 626 876 625 844 626 b 582 611 750 626 679 622 b 117 -104 382 411 183 156 b 139 -171 108 -137 106 -165 b 29 -54 72 -193 13 -139 b 214 343 46 47 110 185 b 400 586 268 424 328 499 "},"8":{"ha":815,"x_min":null,"x_max":null,"o":"m 474 751 b 767 1142 457 943 581 1122 b 915 1081 869 1154 911 1117 b 892 1029 919 1035 894 1022 b 797 1076 889 1069 842 1082 b 585 774 650 1058 572 908 b 604 679 588 740 597 704 b 985 1057 917 804 992 1006 b 992 1058 983 1067 990 1071 b 622 603 1014 856 797 710 b 681 340 646 517 671 435 b 683 293 682 325 683 308 b 264 -140 683 82 518 -100 b 194 -146 240 -144 217 -146 b -68 49 57 -146 -54 -74 b 496 628 -96 328 281 535 b 474 751 488 658 478 710 m 515 544 b 8 26 411 492 -14 236 b 164 -100 18 -71 79 -100 b 211 -97 179 -100 194 -99 b 565 313 350 -83 583 110 b 515 544 558 379 543 450 "},"9":{"ha":899,"x_min":null,"x_max":null,"o":"m 132 -61 b 829 650 408 32 674 333 b 300 358 660 479 461 363 b 153 486 225 357 157 399 b 926 1140 138 758 639 1124 b 1097 1072 978 1143 1093 1142 b 1046 994 1099 1040 1072 1010 b 1069 1049 1058 1014 1069 1035 b 1001 1082 1069 1076 1025 1083 b 238 463 736 1067 238 668 b 349 403 238 407 290 394 b 950 974 621 439 953 875 b 1047 938 949 1025 1049 967 b 97 -156 1042 746 671 -76 b -107 -53 32 -164 -92 -143 b 219 354 -133 103 108 310 b 222 350 225 357 226 353 b -51 -19 147 307 -76 103 b 132 -61 -39 -81 56 -87 "},"\u0000":{"ha":0,"x_min":null,"x_max":null,"o":""},"\r":{"ha":351,"x_min":null,"x_max":null,"o":""}," ":{"ha":351,"x_min":null,"x_max":null,"o":""},"⁄":{"ha":551,"x_min":null,"x_max":null,"o":"m 1044 1124 b 132 -99 947 1169 132 29 b 143 -114 132 -106 136 -114 b 213 -85 172 -114 190 -99 b 118 -147 189 -112 144 -147 b 76 -94 97 -147 76 -124 b 939 1175 76 118 799 1175 b 1044 1124 989 1175 1019 1153 "},"!":{"ha":606,"x_min":null,"x_max":null,"o":"m 865 969 b 333 267 792 999 333 335 b 340 260 333 263 338 260 b 376 278 353 260 376 281 b 311 232 376 274 339 232 b 279 272 290 232 279 253 b 765 1021 279 436 665 1021 b 865 969 815 1021 842 999 m 329 119 b 210 -6 283 113 228 -3 b 147 38 183 -11 153 13 b 228 160 140 76 185 150 b 329 119 254 165 317 146 "},"\"":{"ha":451,"x_min":null,"x_max":null,"o":"m 475 1071 b 479 1074 475 1074 476 1074 b 579 1038 499 1074 579 1063 b 340 843 579 993 390 843 b 333 849 335 843 333 846 b 475 1071 351 861 475 1038 m 635 1071 b 638 1074 635 1074 636 1074 b 740 1038 660 1074 740 1063 b 500 843 740 993 551 843 b 492 849 494 843 492 846 b 635 1071 511 861 635 1038 "},"#":{"ha":1442,"x_min":null,"x_max":null,"o":"m 1482 907 b 1189 635 1465 908 1294 771 b 1596 590 1321 635 1596 601 b 1568 589 1596 589 1586 588 b 1182 600 1511 589 1329 604 l 1160 599 b 1004 401 1104 536 1053 467 b 1421 343 1178 403 1419 356 b 1404 342 1421 342 1413 343 b 1158 349 1319 344 1238 347 b 957 338 1093 349 1029 347 b 624 -217 799 125 668 -143 b 610 -236 614 -232 613 -233 b 840 325 604 -158 728 142 b 657 300 767 317 717 308 b 474 -56 619 247 472 -14 b 476 -62 474 -58 474 -61 b 518 -44 482 -64 503 -51 b 521 -49 522 -43 526 -43 b 436 -107 500 -68 464 -101 b 393 -61 408 -112 390 -94 b 529 275 400 18 483 182 b 379 229 481 263 424 246 b 421 213 368 215 408 213 b 342 196 382 199 368 197 b 244 246 296 193 246 214 b 586 378 240 319 532 371 b 686 542 617 433 651 489 b 303 432 489 504 354 447 b 267 467 275 424 268 436 b 739 624 261 546 424 582 b 1014 957 793 703 933 906 b 1047 969 1024 963 1036 969 b 1147 929 1108 972 1142 939 b 883 633 1125 938 918 688 b 1053 638 940 635 1010 638 b 1364 946 1101 696 1278 918 b 1388 947 1367 946 1369 947 b 1482 907 1447 947 1481 925 m 886 403 b 1017 589 926 465 972 528 b 821 567 944 586 893 575 b 700 392 778 510 736 447 b 813 400 743 394 776 399 b 886 403 836 401 858 403 "},"$":{"ha":1017,"x_min":null,"x_max":null,"o":"m 158 -235 b 197 -94 158 -206 172 -156 b 17 29 124 -93 17 -65 b 442 378 17 149 258 299 b 561 572 479 442 521 507 b 415 701 479 600 415 636 b 871 1004 415 876 690 983 b 1043 1142 978 1128 1014 1142 b 1114 1090 1092 1142 1108 1101 b 1001 999 1093 1092 1039 1040 b 1089 908 1047 986 1089 961 b 847 644 1089 811 976 644 b 799 694 826 644 799 663 b 882 794 799 715 851 778 b 849 738 876 786 850 747 b 1028 940 892 738 1028 865 b 985 979 1028 964 1007 976 b 653 575 860 843 749 704 b 961 349 789 532 961 485 b 238 -93 961 78 457 -85 b 161 -239 189 -185 163 -239 b 158 -235 160 -239 158 -239 m 633 425 b 521 386 615 425 575 410 b 296 17 426 244 351 118 b 899 381 551 75 899 258 b 635 549 899 479 763 513 b 539 414 601 504 569 458 b 617 429 572 424 599 429 b 633 425 638 429 636 425 m 156 -1 b 243 7 182 -1 211 1 b 414 332 288 101 347 215 b 86 35 260 246 86 119 b 156 -1 86 4 124 -1 m 501 678 b 578 600 501 644 526 619 b 824 949 663 731 746 854 b 501 678 669 886 501 756 "},"%":{"ha":1158,"x_min":null,"x_max":null,"o":"m 307 601 b 621 781 444 601 586 781 b 625 769 624 781 625 778 b 281 506 625 747 458 506 b 147 647 203 506 147 568 b 565 1044 147 833 392 1044 b 685 938 625 1044 685 1010 b 621 785 685 869 631 785 b 653 911 611 785 653 826 b 589 988 653 957 632 988 b 253 636 457 988 253 758 b 307 601 253 608 279 601 m 713 15 b 1028 194 850 15 992 194 b 1032 185 1031 194 1032 192 b 688 -79 1032 161 864 -79 b 554 61 608 -79 554 -18 b 972 458 554 247 797 458 b 1090 353 1032 458 1090 424 b 1029 200 1090 283 1036 200 b 1060 325 1018 200 1060 242 b 994 401 1060 371 1038 401 b 658 50 863 401 658 172 b 713 15 658 22 686 15 m 196 17 b 1153 1038 196 201 979 1038 b 1240 972 1185 1038 1226 1003 b 251 10 1117 986 251 110 b 261 -3 251 4 254 -3 b 324 17 294 -3 324 19 b 232 -28 324 11 274 -28 b 196 17 213 -28 196 -3 "},"&":{"ha":1540,"x_min":null,"x_max":null,"o":"m 1301 536 b 636 -444 767 -74 660 -444 b 633 -440 635 -444 633 -443 b 1064 396 631 -364 813 54 b 200 -132 896 231 483 -133 b 7 21 113 -132 10 -85 b 599 532 1 228 425 479 b 386 685 525 535 389 583 b 1149 1171 379 924 865 1171 b 1310 1069 1210 1171 1296 1158 b 938 733 1332 918 1082 733 b 874 808 921 733 875 761 b 938 874 874 838 922 865 b 924 839 932 867 924 847 b 933 829 924 835 926 829 b 1267 1075 989 829 1250 967 b 1164 1144 1274 1128 1214 1144 b 506 701 969 1144 501 868 b 739 593 507 632 636 593 b 808 600 764 593 803 600 b 782 547 818 600 794 549 b 146 69 551 517 178 233 b 253 -32 126 -11 192 -36 b 1138 510 556 -11 963 338 b 993 472 1089 500 1042 488 b 992 464 993 472 989 468 b 940 451 978 458 947 451 b 868 488 928 451 868 465 b 876 513 867 490 872 504 b 1228 604 906 551 1076 593 b 1406 746 1304 688 1367 746 b 1494 694 1438 746 1479 721 b 1374 607 1474 693 1431 660 b 1743 549 1614 601 1743 556 b 1596 550 1743 547 1740 550 b 1301 536 1461 550 1400 549 "},"'":{"ha":426,"x_min":null,"x_max":null,"o":"m 481 893 b 483 894 481 894 482 894 b 578 835 504 892 582 863 b 315 647 572 781 365 639 b 307 654 308 649 306 651 b 481 893 329 667 475 853 "},"(":{"ha":635,"x_min":null,"x_max":null,"o":"m 743 1006 b 190 -89 546 840 190 413 b 189 -161 190 -156 196 -161 b 147 72 174 -161 147 -53 b 647 1076 147 472 438 886 b 786 1182 700 1124 746 1160 b 844 1199 811 1194 831 1201 b 940 1115 922 1188 963 1096 b 743 1006 903 1143 817 1068 "},")":{"ha":631,"x_min":null,"x_max":null,"o":"m 551 1040 b 479 1142 532 1097 507 1142 b 581 1165 450 1140 514 1181 b 614 1149 590 1163 601 1158 b 694 882 676 1103 693 961 b -107 -196 711 283 43 -218 b 579 867 3 -153 593 338 b 551 1040 576 932 564 990 "},"*":{"ha":836,"x_min":null,"x_max":null,"o":"m 606 758 b 319 524 335 547 347 524 b 276 585 300 524 276 560 b 468 764 276 618 392 700 b 306 744 415 757 322 744 b 250 789 282 744 250 765 b 558 860 250 835 282 836 b 500 1031 542 897 500 1013 b 563 1089 500 1061 531 1089 b 633 888 589 1089 581 1035 b 1131 1151 890 1058 1103 1151 b 743 868 1135 1146 813 928 b 1038 844 944 868 1038 858 b 665 792 1038 840 890 824 b 771 493 700 671 761 517 b 606 758 736 522 643 663 "},"+":{"ha":963,"x_min":null,"x_max":null,"o":"m 296 268 b 231 340 261 268 231 313 b 553 426 231 379 438 411 b 793 715 633 550 746 715 b 860 682 821 715 860 700 b 661 433 860 663 726 526 b 724 435 683 433 704 435 b 1010 403 924 435 1010 410 b 576 328 1010 392 694 358 b 336 10 421 149 339 10 b 478 308 326 10 388 165 b 296 268 418 297 328 268 "},",":{"ha":433,"x_min":null,"x_max":null,"o":"m 150 111 b 156 114 150 114 153 114 b 222 33 174 114 222 83 b -50 -162 222 -12 19 -162 b -57 -151 -61 -162 -60 -156 b 150 111 -36 -142 150 78 "},"-":{"ha":771,"x_min":null,"x_max":null,"o":"m 313 283 b 258 360 281 283 258 332 b 510 404 258 396 426 404 b 808 353 628 404 808 369 b 806 349 808 351 808 349 b 313 283 567 349 339 283 "},".":{"ha":388,"x_min":null,"x_max":null,"o":"m 278 103 b 143 -15 231 101 158 -14 b 88 46 115 -17 89 21 b 182 156 85 85 140 151 b 278 103 210 157 268 129 "},"/":{"ha":597,"x_min":null,"x_max":null,"o":"m 1090 1124 b 178 -99 993 1169 178 29 b 189 -114 178 -106 182 -114 b 258 -85 218 -114 236 -99 b 164 -147 235 -112 190 -147 b 122 -94 143 -147 122 -124 b 985 1175 122 118 844 1175 b 1090 1124 1035 1175 1065 1153 "},":":{"ha":642,"x_min":null,"x_max":null,"o":"m 532 410 b 399 292 486 408 415 293 b 342 353 371 290 344 326 b 438 463 339 392 394 458 b 532 410 467 464 524 436 m 379 161 b 246 44 333 160 261 46 b 189 104 218 43 192 79 b 285 215 186 144 242 211 b 379 161 313 215 371 188 "},";":{"ha":538,"x_min":null,"x_max":null,"o":"m 217 99 b 222 101 217 101 219 101 b 286 21 238 101 286 71 b 14 -175 286 -25 88 -175 b 8 -164 6 -175 7 -168 b 217 99 31 -154 217 65 m 485 301 b 351 185 440 300 368 186 b 294 244 324 183 297 219 b 390 354 292 285 347 351 b 485 301 419 356 476 328 "},"<":{"ha":1067,"x_min":null,"x_max":null,"o":"m 193 314 b 854 657 319 314 854 632 b 885 671 854 663 867 671 b 985 622 922 671 985 651 b 379 293 985 568 468 339 b 849 0 675 243 849 43 b 846 -3 849 -3 847 -3 b 228 210 725 114 479 210 l 136 206 b 193 314 125 206 178 314 "},"=":{"ha":1004,"x_min":null,"x_max":null,"o":"m 340 358 b 272 436 299 358 272 408 b 599 479 272 471 489 479 b 990 428 753 479 990 446 b 986 424 990 426 990 424 b 340 358 672 424 376 358 m 258 135 b 188 210 218 135 188 182 b 535 274 188 243 426 274 b 906 229 715 274 906 249 b 901 226 906 229 906 226 b 258 135 732 226 294 135 "},">":{"ha":1001,"x_min":null,"x_max":null,"o":"m 742 381 b 531 593 686 415 531 508 b 597 686 531 640 597 721 b 917 403 597 576 874 403 b 885 306 943 403 904 306 b 40 -37 560 306 44 -37 b 39 -36 39 -37 39 -37 b 742 381 39 6 339 264 "},"?":{"ha":979,"x_min":null,"x_max":null,"o":"m 986 1117 b 424 757 767 1113 472 899 b 625 865 444 757 621 854 b 390 697 615 836 444 697 b 319 781 361 697 311 736 b 931 1172 361 999 696 1168 b 1182 1007 1082 1174 1190 1125 b 308 285 1163 717 314 376 b 336 272 308 272 324 272 b 376 283 351 272 376 285 b 294 243 371 271 329 243 b 232 310 254 242 229 275 b 1139 1025 247 543 1122 768 b 986 1117 1143 1090 1075 1118 m 342 115 b 197 -15 296 114 213 -14 b 140 46 168 -17 143 21 b 247 168 138 85 206 164 b 342 115 275 169 335 142 "},"@":{"ha":1697,"x_min":null,"x_max":null,"o":"m 769 132 b 864 350 769 197 810 283 b 483 83 822 310 585 83 b 428 165 451 83 428 133 b 964 596 428 336 783 596 b 1082 511 1014 596 1082 575 b 1057 449 1082 489 1071 465 b 1054 451 1056 447 1053 450 b 1068 497 1060 463 1068 478 b 1003 560 1068 536 1043 560 b 536 149 844 560 599 317 b 853 367 622 186 781 293 b 988 481 872 386 958 481 b 1060 429 1018 481 1060 453 b 858 110 1060 397 858 213 b 881 86 858 96 863 86 b 1350 697 1082 86 1350 461 b 1051 931 1350 858 1211 931 b 224 124 694 931 236 508 b 588 -183 217 -85 382 -183 b 1842 364 1142 -183 1842 383 b 568 -264 1842 335 1093 -264 b 122 136 307 -264 110 -137 b 1051 956 139 563 660 956 b 1444 679 1240 956 1444 890 b 860 60 1444 372 1063 60 b 769 132 796 60 769 106 "},"A":{"ha":1374,"x_min":null,"x_max":null,"o":"m 1678 1064 b 1317 440 1599 979 1426 707 b 1561 378 1408 428 1539 397 b 1304 411 1561 375 1435 401 l 1303 411 b 1133 -117 1244 289 1124 -25 b 1153 -133 1135 -132 1144 -133 b 1272 -100 1194 -133 1239 -111 b 1129 -171 1222 -146 1172 -171 b 1031 -90 1088 -171 1035 -128 b 1171 418 1014 39 1108 282 b 1118 418 1153 418 1136 418 b 926 410 1054 418 992 417 b -37 -324 732 228 271 -324 b -203 -178 -112 -324 -203 -278 b -147 -83 -203 -119 -171 -83 b -171 -135 -158 -93 -171 -117 b -68 -219 -171 -196 -128 -219 b 851 401 229 -219 650 222 b 315 228 482 361 313 256 b 236 304 314 201 239 243 b 921 465 231 418 736 458 l 922 465 b 1531 1089 1065 608 1456 1010 b 1642 1167 1581 1142 1610 1167 b 1744 1106 1688 1167 1738 1119 b 1678 1064 1715 1101 1700 1086 m 1475 979 b 988 467 1460 965 1446 951 b 1188 458 1053 467 1119 464 b 1475 979 1244 582 1394 869 "},"B":{"ha":1699,"x_min":null,"x_max":null,"o":"m 1403 874 b 1104 582 1299 799 1204 692 b 1721 944 1336 658 1700 835 b 1463 1090 1739 1046 1536 1086 b 693 729 1154 1110 700 868 b 740 661 690 700 700 669 b 710 654 740 660 726 654 b 610 764 643 654 601 696 b 1363 1139 628 915 938 1139 b 1439 1136 1388 1139 1413 1138 b 1775 894 1588 1126 1785 1057 b 1328 579 1764 701 1426 601 b 1375 578 1335 581 1354 579 b 1692 368 1494 568 1697 515 b 264 -306 1681 0 690 -306 b 186 -301 236 -306 210 -304 b -4 -140 74 -287 -11 -244 b 572 288 7 54 469 274 b 563 282 574 286 572 286 b 43 -143 415 214 53 6 b 181 -206 40 -194 143 -203 b 233 -207 197 -207 215 -207 b 1610 415 694 -207 1589 174 b 1351 546 1617 508 1453 539 b 1299 547 1333 547 1317 547 b 1043 514 1215 547 1132 535 b 763 153 964 424 763 201 b 774 146 763 149 768 146 b 865 171 794 144 850 164 b 744 103 839 146 774 103 b 701 150 721 103 700 114 b 1306 942 704 265 1065 769 b 1363 964 1331 958 1351 965 b 1467 890 1442 957 1490 872 b 1403 874 1451 899 1428 890 "},"C":{"ha":1211,"x_min":null,"x_max":null,"o":"m 1511 982 b 1156 650 1511 843 1292 650 b 1097 739 1119 650 1097 696 b 1176 833 1097 772 1163 833 b 1146 771 1179 833 1138 782 b 1460 1007 1240 771 1460 894 b 1319 1106 1460 1069 1406 1106 b 174 -7 892 1106 143 381 b 376 -156 183 -124 269 -156 b 1392 346 638 -156 1063 79 b 1403 338 1393 347 1408 340 b 331 -247 1158 99 635 -254 b 44 -10 182 -244 53 -179 b 1306 1140 17 476 838 1140 b 1511 982 1426 1140 1511 1089 "},"D":{"ha":1686,"x_min":null,"x_max":null,"o":"m 1358 1090 b 525 685 949 1096 525 822 b 569 601 525 647 543 617 b 454 726 508 601 454 660 b 1257 1136 454 936 876 1135 b 1861 722 1631 1138 1868 981 b 246 -287 1850 251 963 -287 b 1 -142 163 -287 1 -267 b 590 333 1 13 294 229 b 582 326 590 332 588 331 b 64 -128 357 222 64 17 b 215 -197 64 -187 160 -197 b 1778 810 835 -197 1778 351 b 1358 1090 1778 988 1563 1088 m 1276 754 b 781 117 1075 543 781 176 b 861 138 804 117 828 121 b 765 76 856 118 793 76 b 726 118 747 76 726 90 b 1182 825 726 217 988 611 b 1363 963 1213 860 1307 963 b 1394 956 1372 963 1385 960 b 1468 888 1457 933 1489 871 b 1381 857 1446 900 1415 885 b 1276 754 1357 838 1332 813 "},"E":{"ha":1143,"x_min":null,"x_max":null,"o":"m 1436 993 b 1049 656 1428 833 1203 656 b 989 715 1018 656 986 688 b 1088 808 990 743 1057 797 b 1051 744 1068 789 1040 744 b 1403 1026 1107 744 1397 899 b 1249 1119 1406 1106 1313 1119 b 640 686 1017 1119 643 818 b 935 536 639 561 839 536 b 872 469 949 536 911 469 b 138 -79 618 469 142 104 b 251 -181 136 -135 172 -172 b 1369 381 526 -211 1122 179 b 1372 368 1372 381 1375 371 b 217 -278 1206 207 582 -286 b 7 -79 81 -275 -7 -186 b 742 478 40 203 544 460 b 519 683 672 486 503 549 b 1226 1154 551 929 969 1154 b 1436 993 1326 1154 1444 1133 "},"F":{"ha":1036,"x_min":null,"x_max":null,"o":"m 1096 906 b 1242 1000 1160 964 1211 1000 b 1354 894 1292 1000 1347 951 b 1317 914 1344 910 1329 914 b 1058 693 1275 914 1176 825 b 944 557 1021 651 985 607 b 1042 560 979 558 1011 560 b 1328 519 1257 560 1335 521 b 1199 528 1321 518 1283 528 b 1044 519 1158 528 1107 526 b 897 499 996 514 946 507 b 451 -219 668 210 451 -126 b 463 -235 451 -228 456 -235 b 533 -206 492 -235 511 -219 b 439 -269 510 -233 465 -269 b 396 -215 418 -269 396 -244 b 717 456 396 -76 540 201 b 381 264 524 399 375 318 b 329 326 382 240 332 297 b 776 538 319 433 578 506 b 1096 906 872 668 969 786 m 2156 1028 b 1419 1104 2121 1040 1757 1104 b 163 638 664 1104 163 794 b 328 503 163 547 317 508 b 321 501 328 503 326 501 b 71 660 228 501 69 538 b 1379 1161 76 965 715 1161 b 2163 1036 1674 1161 2054 1092 b 2156 1028 2183 1026 2165 1024 "},"G":{"ha":1365,"x_min":null,"x_max":null,"o":"m 1553 1026 b 1204 681 1553 868 1354 681 b 1138 740 1172 681 1138 719 b 1229 844 1138 772 1188 826 b 1192 776 1221 835 1183 776 b 1490 1043 1290 776 1490 922 b 1367 1132 1490 1104 1428 1132 b 168 15 986 1132 192 442 b 322 -117 163 -67 194 -128 b 1368 547 625 -89 1142 344 b 729 342 1094 519 729 410 b 679 425 729 328 679 378 b 1338 596 679 549 1224 596 b 1639 531 1499 596 1632 551 b 1442 551 1575 546 1468 556 b 1518 474 1517 538 1540 454 b 1414 439 1497 489 1461 474 b 847 -314 1151 247 924 -124 b 808 -464 819 -382 808 -443 b 813 -476 808 -474 813 -474 b 806 -482 813 -479 811 -482 b 775 -437 792 -482 775 -464 b 1067 239 775 -224 939 85 b 267 -206 850 65 503 -192 b 42 -7 128 -214 43 -133 b 1372 1160 38 514 893 1160 b 1553 1026 1440 1160 1553 1128 "},"H":{"ha":1538,"x_min":null,"x_max":null,"o":"m 1769 407 b 1497 428 1739 407 1638 422 b 1178 -182 1318 156 1174 -104 b 1192 -197 1178 -193 1182 -199 b 1265 -162 1222 -194 1240 -176 b 1167 -235 1240 -192 1194 -233 b 1119 -181 1146 -236 1122 -211 b 1367 431 1113 -57 1228 201 b 986 401 1269 429 1186 424 b 581 -279 778 136 579 -181 b 608 -312 581 -297 589 -310 b 585 -317 601 -315 593 -317 b 525 -235 553 -318 525 -285 b 828 383 525 -124 635 110 b 381 222 583 343 379 253 b 339 288 381 207 339 239 b 886 461 338 406 793 449 b 1242 1047 1024 649 1243 950 b 1136 1117 1240 1100 1190 1118 b 149 429 721 1110 147 506 b 172 407 149 411 158 407 b 239 426 193 407 226 415 b 139 371 239 414 189 371 b 57 443 89 369 57 397 b 1125 1149 54 676 731 1144 b 1340 1011 1232 1150 1339 1124 b 1038 467 1340 865 1157 622 b 1213 472 1096 471 1153 472 b 1388 467 1267 472 1325 471 b 1785 1010 1515 669 1663 876 b 1911 1122 1832 1060 1876 1099 b 1967 1144 1936 1138 1957 1144 b 2071 1071 2047 1144 2096 1053 b 1956 1015 2044 1088 2000 1057 b 1515 454 1831 896 1665 675 b 1769 407 1667 438 1769 415 "},"I":{"ha":1117,"x_min":null,"x_max":null,"o":"m 733 -26 b 1388 451 839 63 1278 413 b 547 -303 1247 360 546 -217 b 463 -257 547 -326 463 -279 b 1365 1093 461 -29 1367 961 b 1288 1151 1365 1144 1328 1151 b 140 221 960 1147 138 456 b 192 203 140 204 158 203 b 254 213 207 203 243 211 b 133 164 254 201 185 164 b 47 258 75 163 49 219 b 1292 1175 44 567 851 1169 b 1428 1058 1389 1176 1426 1125 b 733 -26 1431 826 822 196 "},"J":{"ha":1301,"x_min":null,"x_max":null,"o":"m 1076 383 b 1489 1040 1164 489 1489 868 b 1431 1121 1489 1081 1472 1110 b 1368 1129 1411 1126 1390 1129 b 593 542 1082 1129 617 688 b 613 518 592 531 592 518 b 750 546 660 518 750 546 b 578 479 678 496 606 479 b 494 554 532 478 496 506 b 1358 1161 490 768 1035 1161 b 1431 1153 1383 1161 1408 1158 b 1568 990 1531 1129 1568 1068 b 1225 363 1568 774 1278 422 b 1418 281 1281 349 1376 313 b 1417 279 1418 281 1418 279 b 1208 342 1344 306 1297 325 b 76 -393 974 44 443 -386 b -121 -256 -25 -396 -110 -358 b 944 393 -146 14 457 393 b 1076 383 990 393 1033 390 m 54 -300 b 1057 363 331 -300 826 74 b 958 371 1026 368 993 371 b -43 -225 568 371 -47 58 b 54 -300 -42 -276 3 -300 "},"K":{"ha":1374,"x_min":null,"x_max":null,"o":"m 917 251 b 635 -199 761 71 564 -156 b 614 -201 629 -200 621 -201 b 553 -118 579 -201 553 -169 b 833 426 554 18 685 222 b 815 506 825 457 818 483 b 818 568 811 533 814 557 b 932 639 854 642 958 656 b 914 594 919 631 914 614 b 921 546 914 581 917 564 b 1233 1043 1067 743 1206 929 b 1167 1111 1244 1092 1206 1110 b 153 374 789 1118 92 564 b 206 351 158 357 181 351 b 267 363 222 351 250 357 b 144 318 267 353 199 317 b 51 396 92 319 53 357 b 1192 1146 36 715 757 1146 b 1329 1031 1288 1146 1328 1094 b 964 408 1333 889 1147 650 b 979 376 964 407 971 390 b 1107 519 1024 429 1068 478 b 2139 1229 1517 963 1919 1229 b 2197 1167 2175 1229 2196 1192 b 2129 1042 2199 1115 2149 1064 b 2150 1108 2136 1054 2146 1078 b 2129 1131 2150 1111 2150 1126 b 1124 471 1988 1157 1568 931 b 997 338 1085 431 1042 386 b 1685 -232 1126 72 1386 -232 b 1961 -142 1774 -232 1867 -206 b 1969 -143 1975 -132 1981 -135 b 1624 -282 1851 -242 1735 -282 b 917 251 1311 -282 1046 35 m 888 306 b 721 67 826 224 768 143 b 899 283 771 133 833 208 l 888 306 "},"L":{"ha":1306,"x_min":null,"x_max":null,"o":"m 1629 -206 b 983 -96 1474 -142 1235 -96 b 758 -108 908 -96 833 -100 b 126 -393 306 -162 63 -347 b 21 -283 97 -393 28 -344 b 357 -90 14 -210 175 -137 b 742 300 476 -7 624 163 b 578 289 686 293 632 289 b 129 513 339 289 144 386 b 163 589 126 531 143 565 b 278 633 203 636 268 639 b 222 576 253 625 224 601 b 640 351 218 482 383 351 b 719 356 665 351 692 353 b 793 365 744 358 768 361 b 1607 1158 1065 707 1358 1153 b 1738 1022 1686 1160 1749 1111 b 907 336 1713 783 1339 457 b 507 -58 775 179 619 17 b 706 -35 576 -46 646 -37 b 804 -32 738 -33 769 -32 b 1629 -206 1106 -32 1494 -97 m 1601 1119 b 968 410 1488 1085 1235 731 b 1663 1069 1415 560 1675 951 b 1601 1119 1658 1106 1638 1131 "},"M":{"ha":1997,"x_min":null,"x_max":null,"o":"m 1635 806 b 964 219 1442 701 1163 438 b 690 -160 781 13 690 -121 b 768 -139 690 -178 774 -133 b 632 -207 733 -185 660 -207 b 586 -156 608 -207 586 -182 b 1297 1060 586 22 1297 863 b 1182 1136 1297 1125 1233 1136 b 153 396 793 1136 153 483 b 181 371 153 379 168 371 b 249 382 194 371 235 378 b 133 336 249 369 165 336 b 60 413 89 336 60 371 b 1182 1171 60 636 767 1171 b 1385 990 1314 1171 1385 1104 b 969 274 1385 858 1154 524 b 1786 975 1369 722 1724 975 b 1910 876 1831 975 1903 932 b 1879 888 1904 885 1889 888 b 1329 68 1824 888 1474 379 b 2351 1036 1613 543 2258 1036 b 2469 931 2399 1036 2464 963 b 2425 939 2457 939 2438 939 b 1738 -87 2300 939 1738 231 b 1944 -271 1738 -221 1796 -275 b 2375 -108 2076 -267 2279 -175 b 1940 -308 2210 -261 1989 -303 b 1897 -311 1925 -310 1911 -311 b 1649 -58 1750 -311 1649 -218 b 2040 739 1649 210 1922 624 b 1304 -60 1840 647 1304 78 b 1208 18 1304 -86 1208 -39 b 1635 806 1208 158 1529 703 "},"N":{"ha":1639,"x_min":null,"x_max":null,"o":"m 1379 313 b 1729 819 1476 499 1617 697 b 674 -149 1167 496 674 -68 b 751 -128 674 -167 757 -122 b 615 -196 715 -174 642 -196 b 569 -144 590 -196 569 -171 b 1275 1060 569 33 1275 863 b 1158 1136 1275 1125 1210 1136 b 131 396 768 1136 131 483 b 157 371 131 379 144 371 b 225 382 171 371 211 378 b 108 336 225 369 142 336 b 38 413 65 336 38 371 b 1158 1171 38 636 744 1171 b 1361 990 1290 1171 1361 1104 b 857 154 1361 836 1046 401 b 1935 1001 1182 549 1822 1001 b 2043 888 1972 1001 2046 924 b 2007 904 2033 904 2015 904 b 1417 136 1924 904 1567 439 b 1336 -126 1368 38 1336 -60 b 1533 -276 1336 -246 1418 -276 b 1575 -275 1547 -276 1561 -276 b 1976 -125 1736 -267 1894 -165 b 1560 -307 1842 -242 1638 -301 b 1515 -308 1544 -308 1529 -308 b 1251 -89 1365 -308 1251 -249 b 1379 313 1251 21 1303 168 "},"O":{"ha":1453,"x_min":null,"x_max":null,"o":"m 1243 1111 b 276 432 726 1111 276 592 b 331 365 276 378 303 375 b 289 357 322 360 311 357 b 189 472 239 357 188 406 b 1204 1149 194 732 725 1149 b 1624 797 1435 1149 1624 1049 b 461 -290 1624 364 969 -290 b 186 -62 294 -290 185 -193 b 1182 924 194 361 828 924 b 1331 821 1264 924 1331 886 b 1322 779 1331 808 1328 794 b 1215 846 1325 822 1263 846 b 275 -100 914 846 282 253 b 431 -226 275 -192 338 -226 b 1528 849 763 -226 1528 415 b 1243 1111 1528 1060 1388 1111 "},"P":{"ha":1411,"x_min":null,"x_max":null,"o":"m 331 -228 b 479 125 331 -153 390 -22 b 301 206 371 125 301 154 b 538 392 301 281 503 392 b 542 390 539 392 540 392 b 353 214 499 365 353 275 b 388 199 353 207 361 199 b 538 217 429 199 479 204 b 1249 1000 774 579 1143 1000 b 1363 894 1299 1000 1354 951 b 1324 914 1351 910 1336 914 b 706 261 1242 914 943 578 b 1707 922 1129 393 1707 700 b 1282 1128 1707 1054 1528 1128 b 168 531 792 1128 168 711 b 271 436 168 474 235 439 b 249 435 271 436 271 435 b 74 567 150 435 74 463 b 1292 1168 74 756 574 1168 b 1775 882 1442 1168 1775 1110 b 617 140 1775 517 996 211 b 390 -258 486 -42 390 -201 b 414 -310 390 -285 389 -306 b 392 -314 407 -312 397 -314 b 331 -228 354 -314 331 -279 "},"Q":{"ha":1313,"x_min":null,"x_max":null,"o":"m 1200 1125 b 235 226 786 1117 240 533 b 313 165 236 175 264 160 b 475 251 374 172 450 232 b 261 96 419 158 313 100 b 129 225 151 86 129 169 b 1175 1164 135 567 689 1156 b 1522 863 1363 1168 1524 1078 b 875 -39 1518 535 1156 149 b 1421 -426 1201 -160 1406 -357 b 785 -92 1425 -450 1250 -192 b 307 -235 646 -168 478 -232 b 160 -144 256 -236 158 -226 b 476 36 161 -65 294 33 b 747 1 575 39 665 24 b 1429 922 1069 217 1426 669 b 1200 1125 1431 1074 1329 1128 m 301 -201 b 646 -67 424 -199 532 -137 b 497 -57 593 -61 546 -57 b 194 -151 367 -60 194 -87 b 301 -201 194 -196 269 -201 "},"R":{"ha":1389,"x_min":null,"x_max":null,"o":"m 713 213 b 1358 -218 826 46 1082 -218 b 1628 -124 1447 -218 1539 -190 b 1636 -126 1642 -112 1644 -119 b 1297 -268 1526 -228 1410 -268 b 614 178 1008 -268 736 -4 b 583 224 606 189 594 206 b 340 -146 454 53 340 -112 b 354 -160 340 -154 342 -160 b 461 -131 393 -160 422 -153 b 325 -203 429 -162 374 -203 b 278 -144 283 -203 278 -168 b 526 338 278 -49 414 176 l 521 353 b 506 422 510 385 503 408 b 607 526 524 513 629 553 b 599 474 599 515 594 496 b 607 446 600 465 603 456 b 1164 982 768 660 1039 982 b 1283 932 1214 982 1258 960 b 674 339 1197 972 822 526 b 1579 892 990 354 1593 642 b 1199 1119 1569 1047 1358 1119 b 147 533 676 1119 147 696 b 225 438 147 478 192 440 b 189 431 225 438 221 431 b 49 564 94 431 49 490 b 1143 1160 49 814 611 1160 b 1663 839 1331 1160 1647 1092 b 757 276 1678 578 1161 276 b 672 281 728 276 700 278 b 713 213 683 257 699 233 "},"S":{"ha":1344,"x_min":null,"x_max":null,"o":"m 83 -147 b 200 -203 83 -201 156 -203 b 1213 342 535 -203 1213 132 b 961 517 1213 428 1097 479 b 606 710 794 563 606 588 b 1257 1136 606 943 1054 1129 b 1467 1003 1383 1140 1468 1110 b 1075 658 1464 838 1222 658 b 1006 700 1047 658 1006 669 b 1088 833 1006 757 1060 817 b 1058 761 1067 810 1058 781 b 1075 753 1058 753 1067 753 b 1421 1035 1132 753 1403 908 b 1338 1092 1428 1079 1390 1092 b 1286 1089 1322 1092 1304 1090 b 700 697 1108 1069 700 840 b 974 543 700 617 833 582 b 1293 294 1131 500 1293 449 b 222 -307 1293 -10 601 -307 b -3 -171 131 -307 -3 -281 b 804 363 -3 35 625 367 b 83 -147 436 263 83 -44 "},"T":{"ha":915,"x_min":null,"x_max":null,"o":"m 2136 997 b 1517 1096 2113 1008 1853 1085 b 1436 1097 1490 1097 1463 1097 b 185 610 719 1097 207 796 b 335 467 174 521 324 472 b 329 465 335 467 333 465 b 81 632 236 467 78 510 b 1367 1153 89 932 729 1153 b 1457 1151 1397 1153 1426 1153 b 2143 1010 1750 1142 2036 1068 b 2136 997 2163 1000 2151 992 m 400 -219 b 926 738 390 -87 688 432 b 1083 913 992 819 1044 875 b 1181 975 1124 951 1156 975 b 1301 878 1231 975 1289 936 b 1268 894 1292 890 1279 894 b 1097 753 1236 894 1175 844 b 482 -215 861 472 471 -124 b 588 -175 514 -214 546 -201 b 451 -272 585 -201 489 -271 b 400 -219 428 -274 403 -258 "},"U":{"ha":1690,"x_min":null,"x_max":null,"o":"m 1960 811 b 1444 -86 1739 556 1444 140 b 1525 -151 1444 -118 1461 -151 b 1703 -97 1589 -151 1654 -121 b 1517 -183 1682 -118 1596 -183 b 1356 -49 1424 -183 1356 -146 b 1578 499 1356 119 1496 385 b 636 -203 1367 297 811 -203 b 547 -110 603 -203 547 -144 b 1308 1051 547 113 1308 869 b 1185 1132 1308 1118 1246 1132 b 140 388 821 1132 140 532 b 172 356 140 375 147 356 b 224 363 192 356 217 361 b 142 322 207 346 176 322 b 56 413 69 322 56 382 b 1169 1165 56 708 800 1165 b 1354 996 1271 1165 1354 1118 b 669 -114 1354 728 669 1 b 1525 504 756 -124 1313 299 b 1800 810 1594 574 1700 693 b 2031 1054 1886 911 1972 1004 b 2132 1113 2054 1076 2106 1113 b 2247 1010 2182 1113 2239 1067 b 2208 1028 2238 1025 2222 1029 b 1960 811 2167 1028 2069 939 "},"V":{"ha":1446,"x_min":null,"x_max":null,"o":"m 2258 1164 b 786 -240 1989 1164 1063 286 b 803 -251 785 -244 790 -251 b 838 -246 817 -251 838 -246 b 769 -272 829 -260 790 -272 b 711 -218 731 -272 710 -229 b 1218 1043 721 40 1210 847 b 1113 1122 1221 1097 1163 1122 b 190 426 765 1122 194 528 b 225 397 189 410 199 397 b 268 399 243 397 265 400 b 172 361 268 393 211 361 b 89 444 114 361 88 399 b 1115 1160 97 649 715 1160 b 1304 992 1197 1160 1310 1110 b 844 -74 1292 721 1006 261 b 2256 1257 1214 464 1908 1222 b 2319 1185 2288 1260 2319 1217 b 2249 1050 2319 1118 2268 1071 b 2272 1135 2258 1061 2268 1093 b 2258 1164 2272 1140 2278 1164 "},"W":{"ha":1871,"x_min":null,"x_max":null,"o":"m 1226 -154 b 1651 215 1303 -144 1469 0 b 2150 1092 1894 503 2150 896 b 2142 1147 2150 1113 2147 1132 b 2103 1167 2136 1161 2121 1167 b 2017 1144 2069 1167 2025 1150 b 2157 1213 2040 1163 2108 1211 b 2251 1161 2204 1214 2242 1190 b 2263 1096 2258 1142 2263 1119 b 1674 158 2263 872 1953 456 b 1238 -201 1476 -54 1300 -192 b 1128 -107 1154 -214 1128 -157 b 1481 697 1128 129 1376 549 b 590 -214 1310 582 590 -90 b 606 -219 590 -218 600 -219 b 624 -215 611 -219 618 -218 b 583 -240 625 -215 611 -240 b 524 -190 557 -240 524 -212 b 1129 1036 524 -14 1129 868 b 1008 1115 1129 1101 1065 1115 b 133 451 661 1115 133 538 b 171 422 133 433 138 422 b 214 428 199 422 214 433 b 121 386 214 419 154 386 b 36 472 58 386 36 442 b 988 1151 36 692 660 1151 b 1207 979 1104 1151 1207 1097 b 746 50 1207 729 863 243 b 1613 875 985 356 1551 875 b 1739 782 1651 875 1735 817 b 1701 792 1725 794 1708 792 b 1226 -154 1621 792 1115 -168 "},"X":{"ha":1414,"x_min":null,"x_max":null,"o":"m 1701 13 b 1336 -231 1668 -24 1529 -136 b 1125 -282 1260 -268 1174 -283 b 896 96 947 -276 896 -110 b 914 343 896 175 903 260 b 89 -281 586 33 242 -281 b 33 -162 57 -281 17 -219 b 131 -19 47 -111 113 -39 b 85 -143 107 -60 82 -133 b 924 421 204 -143 571 94 b 989 953 953 608 989 826 b 967 1056 989 1006 982 1042 b 907 1076 950 1069 931 1076 b 254 429 700 1076 254 578 b 297 411 254 411 275 411 b 347 418 308 411 339 417 b 246 374 346 408 292 372 b 169 451 203 375 169 413 b 918 1110 169 632 638 1110 b 1036 1069 963 1110 1004 1097 b 1096 881 1081 1032 1096 965 b 1056 547 1096 785 1075 667 b 1810 1158 1411 893 1635 1093 b 1921 1181 1847 1172 1889 1181 b 1981 1118 1957 1181 1978 1143 b 1911 994 1982 1067 1933 1017 b 1933 1060 1919 1006 1928 1031 b 1913 1082 1933 1063 1933 1078 b 1258 661 1806 1101 1569 928 b 1043 464 1182 596 1110 528 b 1029 363 1038 429 1033 396 b 1007 57 1014 235 1007 135 b 1138 -215 1007 -146 1056 -199 b 1182 -219 1151 -218 1167 -219 b 1350 -182 1236 -219 1296 -204 b 1701 13 1474 -135 1611 -42 "},"Y":{"ha":1485,"x_min":null,"x_max":null,"o":"m 1479 653 b 829 158 1315 475 974 168 b 715 247 758 154 717 218 b 1156 1017 703 433 1165 888 b 1040 1101 1149 1108 1076 1103 b 211 399 688 1082 206 476 b 246 376 213 381 231 372 b 292 386 257 376 283 382 b 204 331 276 361 239 335 b 113 394 164 328 115 354 b 1050 1133 99 625 643 1106 b 1238 994 1139 1140 1232 1099 b 811 226 1250 785 803 342 b 860 211 813 210 838 208 b 1513 751 985 224 1293 490 b 1865 1149 1696 968 1810 1149 b 1974 1069 1921 1149 1972 1097 b 1944 1079 1961 1082 1951 1079 b 1328 199 1857 1074 1542 494 b 1281 129 1307 171 1292 147 b 1456 67 1328 121 1413 101 b 1453 65 1456 67 1456 65 b 1269 113 1389 88 1347 100 b 301 -587 1076 -160 618 -587 b 135 -467 213 -587 142 -557 b 993 142 115 -217 556 113 b 1135 143 1040 144 1088 147 b 1479 653 1258 310 1379 483 m 278 -501 b 1122 121 539 -485 928 -142 b 1043 121 1101 124 1043 121 b 189 -437 711 122 172 -189 b 278 -501 192 -483 233 -504 "},"Z":{"ha":1200,"x_min":null,"x_max":null,"o":"m 1650 1039 b 833 804 1649 1040 1150 821 b 643 863 719 799 643 825 b 844 1110 643 972 779 1081 b 733 964 814 1083 733 1010 b 871 914 733 921 801 915 b 1793 1113 1328 910 1750 1114 b 1807 1081 1801 1113 1817 1081 b 589 268 1815 1081 1193 800 b 221 -69 476 168 328 47 b 804 3 357 -22 597 4 b 1315 -139 1011 0 1210 -37 b 907 -47 1210 -74 1064 -49 b 28 -289 511 -43 28 -196 b -10 -206 26 -322 -10 -256 b 1650 1039 -7 28 1236 888 "},"[":{"ha":0,"x_min":null,"x_max":null,"o":"m 3000 -543 b 176 -107 2347 -286 1154 -133 b -162 -103 61 -104 -51 -103 b -2364 -422 -1393 -103 -2358 -276 b -2308 -462 -2364 -436 -2344 -451 b -2510 -386 -2446 -456 -2510 -429 b -297 -43 -2515 -171 -1435 -43 b 79 -47 -172 -43 -46 -44 b 3000 -543 617 -61 2226 -164 "},"\\":{"ha":896,"x_min":null,"x_max":null,"o":"m 411 1196 b 389 1131 399 1190 392 1168 b 608 -160 365 869 535 -90 b 622 -164 611 -165 621 -168 b 651 -99 642 -144 642 -122 b 629 -200 651 -133 647 -185 b 565 -196 617 -214 586 -214 b 286 1090 443 -76 263 824 b 306 1160 289 1125 294 1150 b 411 1196 339 1193 372 1199 "},"]":{"ha":0,"x_min":null,"x_max":null,"o":"m 2400 -518 b 110 -133 1871 -293 822 -156 b -240 -128 -11 -129 -128 -128 b -1937 -383 -1243 -128 -1932 -264 b -1894 -419 -1937 -396 -1921 -407 b -2078 -331 -2004 -411 -2078 -368 b -369 -62 -2079 -154 -1258 -62 b 32 -68 -236 -62 -101 -64 b 2400 -518 450 -81 1775 -186 "},"_":{"ha":933,"x_min":null,"x_max":null,"o":"m 53 -104 b -14 -37 47 -104 -14 -75 b 363 35 -14 7 235 35 b 818 -6 822 35 828 -6 b 53 -104 449 -6 61 -104 "},"`":{"ha":429,"x_min":null,"x_max":null,"o":"m 251 731 b 546 551 251 678 399 551 b 483 535 551 551 538 535 b 151 690 311 535 151 640 b 251 749 151 717 221 749 b 251 731 260 749 251 744 "},"a":{"ha":649,"x_min":null,"x_max":null,"o":"m 318 115 b 399 265 335 167 372 231 b 28 -10 357 224 86 -10 b 15 -6 25 -10 18 -7 b -46 88 -10 7 -46 60 b 528 549 -46 239 272 549 b 650 461 581 549 650 526 b 624 396 650 438 638 414 b 619 397 621 394 618 396 b 635 447 626 410 635 426 b 567 507 635 489 608 510 b 294 368 486 503 385 444 b 71 74 163 256 58 81 b 81 74 74 72 76 72 b 393 290 126 89 321 229 b 543 419 418 313 508 400 b 613 340 571 433 618 357 b 439 114 606 354 481 203 b 425 67 431 94 425 78 b 797 363 513 92 711 282 b 807 354 804 369 811 358 b 376 -10 686 222 460 -10 b 353 -1 369 -10 363 -7 b 307 64 333 10 307 39 b 318 115 307 78 313 94 "},"b":{"ha":586,"x_min":null,"x_max":null,"o":"m 556 804 b 176 246 418 632 283 451 b 604 542 285 379 529 568 b 669 463 621 535 669 482 b 208 0 669 338 400 0 b 93 82 154 0 93 36 b 99 88 93 89 99 92 b 151 47 99 74 124 47 b 557 486 292 47 544 417 b 111 129 533 488 256 342 b 76 -17 71 71 14 -10 b 32 -10 60 -24 46 -18 b -18 46 19 -6 -8 24 b 21 190 -22 57 -19 99 b 414 807 99 364 271 617 b 582 993 463 872 517 939 b 635 1018 604 1008 622 1018 b 740 951 713 1018 767 936 b 556 804 703 971 640 910 "},"c":{"ha":482,"x_min":null,"x_max":null,"o":"m 97 74 b 138 50 97 51 125 49 b 633 361 265 64 499 251 b 643 354 638 364 647 358 b 83 -10 524 242 256 -10 b -18 76 39 -10 -11 32 b -15 118 -19 88 -19 101 b 139 364 -4 176 46 274 b 492 549 253 476 393 549 b 571 481 524 549 571 501 b 457 342 571 428 503 376 b 450 346 454 339 447 342 b 518 488 472 368 529 478 b 97 74 369 485 97 171 "},"d":{"ha":664,"x_min":null,"x_max":null,"o":"m 508 549 b 569 525 535 549 557 539 b 810 867 656 658 742 774 b 925 993 853 921 892 965 b 976 1021 946 1010 964 1021 b 1085 960 1054 1025 1110 944 b 886 776 1038 982 944 851 b 700 517 825 700 768 618 b 432 63 578 333 467 150 b 811 363 506 68 750 306 b 822 354 819 369 826 358 b 428 -7 756 279 507 18 b 382 -1 411 -12 396 -8 b 329 71 360 11 329 40 b 428 296 329 99 360 171 b 21 -10 379 257 93 -10 b -49 85 -4 -10 -49 53 b 224 433 -49 160 76 338 b 508 549 331 504 425 549 m 557 506 b 499 506 539 511 518 511 b 272 344 440 490 349 419 b 65 74 147 226 54 81 b 467 360 82 64 304 218 "},"e":{"ha":481,"x_min":null,"x_max":null,"o":"m 142 188 b 86 78 117 158 90 114 b 128 51 85 61 97 51 b 624 361 229 51 483 244 b 633 353 628 364 638 357 b 68 -10 529 256 253 -10 b -31 78 25 -10 -31 40 b -11 169 -31 111 -22 139 b 181 410 22 249 93 336 b 479 549 296 506 419 549 b 564 478 500 549 564 517 b 142 188 564 392 297 192 m 519 507 b 160 215 365 457 206 289 b 519 507 281 229 511 454 "},"f":{"ha":318,"x_min":null,"x_max":null,"o":"m 474 867 b 588 993 515 921 556 965 b 639 1021 610 1010 628 1021 b 747 960 718 1025 774 944 b 550 776 700 982 608 851 b 192 254 444 644 346 494 l 193 251 b 564 444 294 285 494 386 b 569 449 565 447 567 449 b 576 442 574 449 576 444 b 576 439 576 440 576 439 b 285 251 533 397 400 313 b 190 210 258 238 211 214 b 210 71 200 182 210 128 b 203 -8 210 44 207 17 b -281 -682 126 -404 -221 -679 l -285 -682 b -347 -612 -312 -683 -346 -636 b 36 213 -351 -535 -190 -171 b 94 317 -1 243 53 317 b 474 867 226 528 367 729 m -256 -599 b -242 -593 -253 -600 -250 -599 b 182 39 -78 -471 135 -253 b 186 88 185 53 186 69 b 160 207 186 132 178 183 b -253 -581 0 -49 -194 -436 b -256 -599 -258 -592 -258 -599 "},"g":{"ha":604,"x_min":null,"x_max":null,"o":"m 478 117 b 569 149 508 128 539 139 b 594 144 592 156 614 151 b 463 89 550 126 506 107 b -211 -640 285 -221 56 -569 b -257 -646 -226 -644 -242 -646 b -351 -564 -308 -646 -351 -622 b -342 -510 -351 -549 -349 -531 b 307 44 -286 -333 -12 -108 b 454 307 338 97 454 307 b 394 260 456 308 421 283 b 219 111 374 240 297 172 b 29 -10 140 50 58 -10 b 15 -6 26 -10 19 -8 b -44 88 -10 10 -44 60 b 529 549 -44 239 275 549 b 653 461 583 549 653 526 b 626 396 653 438 639 414 b 624 397 624 394 622 396 b 638 447 629 410 638 426 b 569 507 638 489 611 510 b 297 368 489 503 389 444 b 78 74 165 256 64 85 b 200 144 83 68 139 104 b 378 279 267 189 332 240 b 518 392 474 360 494 381 b 597 313 544 404 603 329 b 563 274 593 317 586 321 m -187 -539 b 282 1 -25 -451 140 -228 b -261 -471 29 -132 -164 -290 b -283 -532 -276 -499 -283 -518 b -253 -558 -283 -551 -271 -558 b -187 -539 -233 -558 -210 -550 "},"h":{"ha":618,"x_min":null,"x_max":null,"o":"m 625 876 b 158 206 489 722 271 429 b 603 540 317 374 556 540 b 663 450 635 540 679 465 b 410 64 626 422 414 129 b 781 363 496 88 693 281 b 793 354 790 369 797 358 b 424 13 693 247 528 74 b 376 -8 413 6 392 -4 b 356 -8 371 -10 365 -11 b 296 75 328 1 296 50 b 517 442 296 154 444 376 b 217 225 435 404 317 319 b 147 154 203 213 147 154 b 61 35 106 110 75 68 b 83 -17 49 7 51 -12 b 38 -10 67 -24 51 -18 b -12 46 28 -6 -3 24 b 28 193 -17 57 -14 101 b 421 807 101 361 290 633 b 589 993 458 858 529 943 b 642 1018 611 1010 631 1018 b 747 951 719 1018 774 936 b 625 876 719 965 678 936 "},"i":{"ha":313,"x_min":null,"x_max":null,"o":"m 36 -10 b 19 -8 31 -10 26 -10 b -37 58 -3 -1 -37 33 b 253 513 -37 139 164 442 b 274 521 260 519 268 521 b 361 431 306 521 361 465 b 343 433 361 425 354 432 b 79 65 286 439 96 122 b 451 363 164 88 367 281 b 464 354 461 369 468 358 b 36 -10 343 224 122 -3 m 403 733 b 483 689 435 738 465 710 b 499 654 496 675 504 654 b 469 653 496 654 485 660 b 365 563 446 643 382 586 b 315 592 346 538 317 567 b 403 733 314 632 367 722 "},"j":{"ha":285,"x_min":null,"x_max":null,"o":"m 168 175 b 133 117 156 156 146 136 b 226 149 164 128 194 139 b 251 144 249 156 271 151 b 118 89 204 126 161 108 b -551 -642 -57 -221 -282 -571 b -597 -647 -567 -646 -582 -647 b -692 -564 -649 -647 -692 -624 b -682 -511 -692 -549 -689 -532 b -37 43 -624 -335 -354 -110 b 44 185 -8 90 17 138 b 233 497 128 329 197 449 b 288 536 244 511 265 535 b 376 444 319 540 376 479 b 361 447 376 439 372 446 b 314 415 349 449 332 438 b 168 175 282 376 219 268 m -526 -540 b -61 0 -364 -453 -201 -229 b -603 -472 -314 -133 -504 -292 b -622 -532 -617 -499 -622 -518 b -592 -560 -622 -553 -610 -560 b -526 -540 -572 -560 -549 -551 m 407 765 b 486 721 438 769 468 742 b 503 686 499 707 507 686 b 472 685 499 686 488 692 b 368 594 449 675 385 618 b 318 624 349 569 319 599 b 407 765 317 664 369 754 "},"k":{"ha":528,"x_min":null,"x_max":null,"o":"m 65 335 b 126 374 74 357 100 368 b 410 794 222 535 321 676 b 585 993 481 889 540 957 b 638 1018 608 1011 626 1018 b 746 951 718 1018 771 936 b 574 822 708 969 656 917 b 490 717 558 804 490 717 b 229 335 407 611 303 453 b 574 581 339 451 506 581 b 640 493 604 581 640 522 b 203 225 640 390 357 211 b 628 -142 263 71 446 -142 b 771 -92 676 -142 725 -126 b 779 -96 775 -87 786 -89 b 589 -175 721 -151 656 -175 b 128 160 410 -175 222 -3 b 81 -17 94 97 18 -10 b 35 -10 64 -24 49 -18 b -14 46 25 -6 -3 24 b 28 193 -17 57 -17 103 b 69 276 40 221 56 249 b 65 335 64 299 60 319 m 522 521 b 190 269 426 497 204 289 b 199 242 193 256 196 246 b 522 521 321 258 481 438 "},"l":{"ha":335,"x_min":null,"x_max":null,"o":"m 217 517 b 464 867 303 651 392 772 b 579 993 506 921 544 965 b 631 1021 600 1010 618 1021 b 738 960 708 1025 764 944 b 538 776 689 982 599 851 b 351 517 478 700 421 618 b 93 68 231 333 126 157 b 465 363 153 61 383 288 b 475 354 474 369 479 358 b 82 -7 407 276 165 24 b 38 -1 64 -14 50 -8 b -12 54 26 4 -4 33 b -17 75 -14 57 -17 60 b 217 517 -17 117 47 251 "},"m":{"ha":911,"x_min":null,"x_max":null,"o":"m 653 -10 b 581 69 621 -10 581 43 b 804 447 581 149 732 381 b 368 32 551 272 407 32 b 304 104 349 32 304 76 b 504 442 304 157 411 357 b 133 113 364 357 235 226 b 85 56 110 86 94 68 b 60 -28 46 10 39 -18 b -29 44 18 -37 -18 6 b 10 156 -32 54 -26 92 b 229 486 69 268 153 396 b 283 542 249 510 268 529 b 301 549 289 547 297 549 b 389 460 336 549 389 494 b 372 463 389 454 383 461 b 325 428 363 464 343 450 b 111 124 265 360 143 178 b 558 525 200 242 500 513 b 567 526 561 526 564 526 b 626 443 594 526 640 457 b 431 119 556 368 431 168 b 883 542 561 285 825 542 b 942 451 914 542 960 467 b 690 61 907 424 690 122 b 1072 363 781 82 983 278 b 1085 354 1082 369 1089 358 b 653 -10 964 222 735 -10 "},"n":{"ha":649,"x_min":null,"x_max":null,"o":"m 686 451 b 433 65 651 424 436 131 b 808 363 521 89 719 279 b 819 354 817 369 824 358 b 389 -7 699 222 472 -7 b 346 22 375 -7 360 6 b 321 76 331 40 321 61 b 554 453 321 156 482 388 b 133 122 440 401 236 233 b 83 64 115 104 99 83 b 57 -28 46 19 36 -18 b -29 47 15 -37 -18 7 b 10 158 -32 57 -25 94 b 142 369 43 224 96 306 b 289 542 192 440 253 514 b 307 549 294 547 303 549 b 394 460 342 549 394 494 b 378 463 394 454 389 461 b 267 351 360 464 308 406 b 108 124 201 265 129 163 b 179 201 124 146 150 174 b 626 542 335 354 579 542 b 686 451 660 542 704 467 "},"o":{"ha":551,"x_min":null,"x_max":null,"o":"m 592 521 b 557 525 578 522 567 525 b 93 24 306 525 15 57 b 463 356 171 -8 369 214 b 447 424 456 368 442 410 b 511 481 451 438 493 479 b 543 467 525 482 540 471 b 658 396 569 424 603 392 b 818 457 751 404 803 458 b 688 369 811 438 756 392 b 606 357 657 360 628 357 b 564 363 585 357 571 360 b 92 -14 526 178 239 -22 b -14 96 28 -10 -14 43 b 510 549 -14 322 290 549 b 594 525 563 549 585 533 b 592 521 601 521 597 521 "},"p":{"ha":635,"x_min":null,"x_max":null,"o":"m 176 408 b 297 542 214 456 269 519 b 318 550 306 549 314 550 b 403 460 350 550 403 496 b 389 463 403 456 399 461 b 275 351 368 465 319 408 b 197 243 257 329 197 243 b 647 540 318 375 578 564 b 714 460 665 533 714 481 b 251 1 714 335 442 1 b 133 82 197 1 133 36 b 140 88 133 89 140 92 b 193 47 140 74 164 47 b 600 485 333 47 583 407 b 114 119 579 485 356 374 b -251 -575 -21 -74 -217 -369 b -226 -642 -258 -610 -258 -637 b -342 -531 -290 -667 -353 -615 b 176 408 -312 -297 -35 138 "},"q":{"ha":576,"x_min":null,"x_max":null,"o":"m 428 -125 b 32 -642 231 -285 46 -575 b 13 -647 29 -646 19 -646 b -57 -550 -39 -654 -61 -576 b 4 -389 -50 -508 -22 -447 b 381 239 63 -257 204 18 b 36 -10 290 160 86 -10 b -39 88 10 -10 -39 56 b 535 551 -39 240 281 551 b 661 464 588 551 661 531 b 633 397 661 440 649 418 b 631 400 632 396 629 399 b 643 450 636 414 643 429 b 576 511 643 492 618 514 b 303 371 496 507 393 449 b 74 60 169 258 60 67 b 410 297 89 50 331 228 b 563 429 435 319 526 410 b 633 349 589 443 639 367 b 503 214 629 354 599 324 b 68 -469 389 82 126 -351 b 67 -471 67 -469 67 -471 b 421 -118 176 -319 383 -129 b 428 -125 428 -117 428 -125 "},"r":{"ha":565,"x_min":null,"x_max":null,"o":"m 136 369 b 279 539 185 440 244 511 b 299 546 288 544 293 546 b 385 457 332 546 385 492 b 369 460 385 451 381 458 b 258 351 349 461 300 407 b 143 185 221 301 172 236 b 475 483 217 281 356 397 b 600 549 529 522 571 546 b 663 479 615 550 672 490 b 471 238 632 447 517 346 b 719 382 538 243 633 306 b 731 382 721 383 729 385 b 443 193 706 349 539 193 b 376 258 418 193 376 242 b 457 419 376 297 421 378 b 169 185 329 344 264 289 b 46 -28 99 108 15 -14 b -37 44 6 -37 -28 6 b -17 115 -40 57 -33 83 b 136 369 18 194 81 290 "},"s":{"ha":393,"x_min":null,"x_max":null,"o":"m 475 493 b 178 301 411 499 196 367 b 219 243 172 278 206 256 b 638 399 442 368 619 399 b 646 392 640 399 646 396 b 232 225 658 388 383 315 b 281 142 250 211 285 171 b -12 -22 261 51 78 -22 b -65 33 -43 -22 -58 3 b 192 229 -61 93 143 210 b 107 360 176 249 94 299 b 451 569 129 465 329 569 b 504 465 490 569 508 506 b 378 363 503 446 415 363 b 375 368 376 363 374 368 b 475 493 379 368 472 465 m 197 206 b -29 49 114 158 11 89 b 197 206 25 64 197 153 "},"t":{"ha":325,"x_min":null,"x_max":null,"o":"m 397 779 b 579 993 506 921 544 965 b 631 1021 600 1010 618 1021 b 738 960 708 1025 764 944 b 550 790 693 981 611 869 b 1265 749 774 801 1067 790 b 1265 744 1276 746 1282 743 b 504 732 990 768 736 767 b 351 517 453 668 407 599 b 93 68 231 333 126 157 b 465 363 153 61 383 288 b 475 354 474 369 479 358 b 82 -7 407 276 165 24 b 38 -1 64 -14 50 -8 b -12 54 26 4 -4 33 b -17 75 -14 57 -17 60 b 217 517 -17 117 46 253 b 346 703 254 574 294 635 b 168 589 214 676 132 610 b 94 660 146 589 99 615 b 397 779 89 722 242 761 "},"u":{"ha":665,"x_min":null,"x_max":null,"o":"m 328 126 b 456 353 351 190 404 289 b 46 -7 315 210 129 10 b 35 -7 43 -7 35 -7 b -31 64 13 -7 -31 31 b 125 374 -31 124 46 264 b 267 536 174 442 232 508 b 286 544 274 543 282 544 b 374 454 319 544 374 490 b 356 457 374 449 368 456 b 229 326 335 460 276 388 b 89 72 158 233 89 113 b 364 289 156 100 297 225 b 618 542 436 360 539 481 b 638 549 625 547 632 549 b 724 460 671 549 724 494 b 707 463 724 454 719 461 b 661 431 697 463 679 450 b 556 297 640 408 601 358 b 435 67 486 204 435 106 b 804 363 522 93 719 282 b 815 354 813 369 819 358 b 385 -10 694 222 468 -10 b 363 -1 378 -10 369 -7 b 313 67 340 10 313 42 b 328 126 313 81 321 106 "},"v":{"ha":435,"x_min":null,"x_max":null,"o":"m 19 42 b 106 319 19 99 49 204 b 243 531 154 418 203 496 b 261 539 251 538 257 539 b 349 449 294 540 347 486 b 335 450 347 444 346 450 b 217 294 308 453 265 382 b 136 92 165 206 142 110 b 654 604 261 181 532 467 b 663 601 664 615 671 617 b 79 -12 521 351 122 -12 b 19 42 51 -14 19 31 "},"w":{"ha":694,"x_min":null,"x_max":null,"o":"m 385 339 b 492 481 438 417 465 458 b 511 488 499 486 507 488 b 607 399 544 488 604 435 b 589 401 607 394 603 400 b 485 285 568 403 538 368 b 400 79 435 206 394 99 b 925 649 575 186 794 442 b 929 646 933 660 936 660 b 369 -10 825 376 425 -10 b 299 56 335 -10 300 44 b 365 283 292 110 329 208 b 150 56 301 210 206 101 b 51 -15 107 19 67 -15 b -12 50 25 -15 -10 39 b 135 396 -15 122 57 279 b 236 519 176 460 204 493 b 256 528 243 526 251 528 b 350 438 292 528 349 474 b 335 440 351 433 347 439 b 286 406 322 440 306 428 b 99 75 231 342 110 154 b 385 339 140 97 257 192 "},"x":{"ha":476,"x_min":null,"x_max":null,"o":"m -76 38 b 94 219 -76 79 -12 142 b 169 272 118 238 144 256 b 157 368 161 299 157 335 b 164 446 157 399 160 428 b 260 531 178 499 226 517 b 301 535 272 535 296 542 b 290 519 299 532 297 531 b 263 382 274 486 263 428 b 268 338 263 365 265 349 b 710 585 401 428 607 543 b 713 578 719 589 719 582 b 285 271 550 482 393 357 b 663 -146 319 106 479 -146 b 719 -143 683 -146 703 -146 b 721 -146 724 -142 729 -143 b 639 -160 696 -156 667 -160 b 197 201 463 -160 281 6 b 36 54 121 143 69 99 b 26 -10 7 18 6 -7 b -69 18 7 -21 -44 -19 b -76 38 -74 24 -76 31 "},"y":{"ha":575,"x_min":null,"x_max":null,"o":"m 669 429 b 493 218 611 368 554 293 b 82 -467 385 83 164 -312 b 433 -118 192 -315 393 -131 b 440 -126 440 -118 440 -126 b 43 -643 242 -285 58 -576 b 28 -647 40 -646 35 -647 b -44 -551 -28 -653 -49 -576 b 14 -390 -40 -510 -11 -449 b 471 361 86 -232 275 136 b 51 -7 331 218 135 10 b 40 -7 47 -7 43 -7 b -25 64 18 -7 -25 31 b 131 374 -25 124 51 264 b 269 532 178 442 235 504 b 289 540 276 539 285 540 b 375 450 322 540 375 486 b 360 453 375 444 371 451 b 233 326 338 456 281 389 b 94 72 163 235 94 113 b 368 289 161 100 303 225 b 626 540 442 360 550 479 b 647 549 635 547 640 549 b 733 458 679 549 733 493 b 718 461 733 453 728 460 b 669 429 707 463 689 450 "},"z":{"ha":544,"x_min":null,"x_max":null,"o":"m 267 550 b 422 468 247 504 336 463 b 603 542 506 474 592 524 b 671 433 614 558 688 461 b 92 97 565 419 178 192 b 240 125 122 114 179 125 b 514 1 346 125 468 93 b 508 -7 518 -8 514 -14 b 272 82 475 51 407 82 b 11 -14 131 82 33 -14 b -61 79 -10 -14 -74 58 b 479 453 -1 190 346 414 b 336 433 439 440 385 433 b 211 456 281 433 229 442 b 267 550 179 483 221 539 "},"{":{"ha":0,"x_min":null,"x_max":null,"o":"m 1054 -172 b 451 -150 874 -161 681 -150 b -97 -172 289 -150 108 -156 b -1543 -508 -908 -237 -1543 -392 b -1511 -551 -1543 -524 -1533 -537 b -1672 -451 -1596 -547 -1671 -500 b -204 -111 -1675 -268 -736 -143 b 281 -99 -54 -103 111 -99 b 1117 -137 582 -99 889 -111 b 1706 -261 1353 -164 1657 -231 b 1054 -172 1656 -251 1350 -189 "},"|":{"ha":528,"x_min":null,"x_max":null,"o":"m 578 1171 b 258 -43 483 1174 258 201 b 279 -101 258 -56 257 -101 b 333 -53 300 -101 321 -69 b 258 -137 322 -81 297 -137 b 196 33 194 -137 196 -21 b 496 1185 196 299 340 1185 b 578 1171 521 1185 558 1178 "},"}":{"ha":0,"x_min":null,"x_max":null,"o":"m 939 -162 b 544 -146 818 -154 693 -146 b 121 -168 422 -146 285 -151 b -922 -467 -462 -226 -922 -364 b -899 -504 -922 -481 -914 -492 b -1022 -410 -958 -500 -1021 -453 b 33 -108 -1026 -247 -349 -136 b 392 -97 144 -100 267 -97 b 985 -132 606 -97 822 -108 b 1408 -242 1154 -156 1374 -207 b 939 -162 1411 -247 1153 -176 "},"€":{"ha":1318,"x_min":null,"x_max":null,"o":"m 1188 608 b 1125 653 1149 608 1125 629 b 1208 746 1125 676 1154 715 b 1182 693 1204 740 1161 693 b 1403 886 1232 693 1403 801 b 1297 960 1403 933 1356 960 b 601 543 1068 960 765 731 b 817 556 672 551 744 556 b 1324 489 1143 556 1324 503 b 1318 488 1324 488 1322 488 b 1050 503 1301 488 1231 503 b 532 456 875 503 647 478 b 471 356 518 440 494 403 b 917 399 614 382 778 399 b 1176 364 1076 399 1176 371 b 1067 369 1176 363 1135 369 b 428 257 883 369 618 322 b 411 167 419 225 411 196 b 564 17 411 46 469 17 b 1344 442 917 17 1339 442 b 1346 442 1344 442 1346 442 b 543 -58 1346 400 853 -58 b 294 165 369 -58 294 39 b 297 208 294 179 294 196 b 268 203 293 208 285 203 b 244 247 254 203 244 229 b 328 322 244 296 283 311 b 372 418 339 353 351 382 b 314 399 367 418 333 407 b 343 379 317 392 328 386 b 265 365 343 379 313 365 b 199 428 225 365 199 404 b 440 519 199 474 389 508 b 1282 985 610 738 1036 985 b 1451 872 1379 985 1451 940 b 1188 608 1451 749 1297 608 "},"…":{"ha":1128,"x_min":null,"x_max":null,"o":"m 342 103 b 208 -15 296 101 225 -14 b 151 46 181 -17 154 21 b 247 156 149 85 204 151 b 342 103 276 157 333 129 m 642 103 b 510 -15 597 101 525 -14 b 451 46 481 -17 456 21 b 547 156 449 85 506 151 b 642 103 576 157 633 129 m 943 103 b 808 -15 897 101 825 -14 b 753 46 781 -17 754 21 b 849 156 750 85 806 151 b 943 103 876 157 935 129 "},"ˆ":{"ha":435,"x_min":null,"x_max":null,"o":"m 451 731 b 521 565 435 674 475 582 b 515 560 521 565 525 560 b 369 681 481 558 389 608 b 101 588 283 617 163 588 b 86 592 94 588 82 592 b 390 767 197 611 328 694 b 451 731 397 776 457 744 "},"‰":{"ha":1725,"x_min":null,"x_max":null,"o":"m 382 617 b 696 796 519 617 661 796 b 700 785 700 796 700 793 b 356 521 700 763 532 521 b 225 663 279 521 225 583 b 639 1060 225 849 468 1060 b 760 953 700 1060 760 1025 b 697 800 760 885 706 800 b 726 926 686 800 726 842 b 664 1003 726 972 707 1003 b 328 651 531 1003 328 774 b 382 617 328 624 354 617 m 789 31 b 1101 210 925 31 1067 210 b 1107 200 1106 210 1107 207 b 763 -64 1107 176 939 -64 b 631 76 685 -64 631 -3 b 1046 474 631 263 874 474 b 1165 368 1107 474 1165 439 b 1103 215 1165 299 1111 215 b 1135 340 1094 215 1135 257 b 1069 417 1135 386 1113 417 b 733 65 938 417 733 188 b 789 31 733 38 761 31 m 272 32 b 1229 1053 272 217 1053 1053 b 1317 988 1260 1053 1301 1018 b 326 25 1190 1001 326 125 b 336 13 326 19 329 13 b 399 32 368 13 399 35 b 307 -12 399 26 349 -12 b 272 32 286 -12 272 13 m 1271 31 b 1585 210 1408 31 1551 210 b 1589 200 1589 210 1589 207 b 1244 -64 1589 176 1422 -64 b 1113 76 1167 -64 1113 -3 b 1529 474 1113 263 1356 474 b 1650 368 1589 474 1650 439 b 1586 215 1650 299 1594 215 b 1617 340 1576 215 1617 257 b 1554 417 1617 386 1596 417 b 1215 65 1421 417 1215 188 b 1271 31 1215 38 1243 31 "},"‘":{"ha":481,"x_min":null,"x_max":null,"o":"m 679 1126 b 681 1118 683 1126 686 1122 b 454 856 624 1090 454 875 b 436 843 454 849 444 843 b 367 914 404 843 367 888 b 679 1126 367 954 561 1126 "},"’":{"ha":625,"x_min":null,"x_max":null,"o":"m 417 843 b 415 851 414 843 411 847 b 642 1114 472 879 642 1094 b 660 1126 642 1121 651 1126 b 728 1056 690 1126 728 1082 b 417 843 728 1015 535 843 "},"“":{"ha":542,"x_min":null,"x_max":null,"o":"m 593 846 b 590 843 593 843 592 843 b 490 879 571 843 490 854 b 728 1074 490 924 679 1074 b 738 1068 735 1074 738 1071 b 593 846 718 1056 593 879 m 435 846 b 431 843 435 843 433 843 b 332 879 413 843 332 854 b 569 1074 332 924 521 1074 b 578 1068 576 1074 578 1071 b 435 846 558 1056 435 879 "},"”":{"ha":550,"x_min":null,"x_max":null,"o":"m 431 1071 b 435 1074 431 1074 432 1074 b 535 1038 456 1074 535 1063 b 296 843 535 993 346 843 b 288 849 290 843 288 846 b 431 1071 307 861 431 1038 m 590 1071 b 593 1074 590 1074 590 1074 b 694 1038 614 1074 694 1063 b 456 843 694 993 506 843 b 447 849 449 843 447 846 b 590 1071 468 861 590 1038 "},"•":{"ha":639,"x_min":null,"x_max":null,"o":"m 419 392 b 458 347 443 392 458 374 b 329 210 458 288 394 210 b 286 257 300 210 286 229 b 419 392 286 313 351 392 "},"˜":{"ha":639,"x_min":null,"x_max":null,"o":"m 464 639 b 407 646 447 643 426 646 b 321 596 374 646 340 636 b 449 728 306 653 361 728 b 607 664 510 728 569 674 b 649 658 621 660 636 658 b 792 735 715 658 767 703 b 600 601 769 689 689 589 b 464 639 538 610 510 629 "},"™":{"ha":1171,"x_min":null,"x_max":null,"o":"m 693 804 b 408 558 538 633 429 558 b 407 560 407 558 404 560 b 763 932 606 731 725 932 b 808 911 785 932 808 926 b 722 722 808 908 767 797 b 938 940 778 765 938 913 b 1003 904 938 954 1003 943 b 754 539 1003 899 815 539 b 751 543 753 539 751 540 b 900 850 751 539 910 879 b 624 568 793 739 672 604 b 586 603 611 558 586 590 b 693 804 586 607 664 731 m 849 997 b 388 868 503 997 388 882 b 428 861 388 858 419 861 b 368 846 424 856 394 844 b 314 896 344 847 314 861 b 694 1049 314 985 542 1049 b 1119 965 986 1049 1119 965 b 849 997 1067 976 999 997 m 301 499 b 583 938 301 586 529 938 b 636 906 610 938 636 917 b 303 496 617 915 317 496 b 301 499 301 496 301 497 "},"¡":{"ha":713,"x_min":null,"x_max":null,"o":"m 107 -15 b 656 707 183 -46 656 638 b 646 714 656 711 650 714 b 611 696 633 714 611 693 b 678 742 611 700 647 742 b 711 700 700 742 711 721 b 210 -69 711 533 313 -69 b 107 -15 158 -69 132 -46 m 660 857 b 779 986 707 867 764 983 b 847 942 808 992 840 968 b 764 815 854 903 807 826 b 660 857 735 811 672 832 "},"¢":{"ha":856,"x_min":null,"x_max":null,"o":"m 282 186 b 354 142 282 146 315 143 b 697 668 458 350 576 514 b 282 186 629 649 282 347 m 840 729 b 856 678 853 713 856 696 b 735 496 856 615 750 496 b 731 500 732 496 729 500 b 815 665 736 500 815 599 b 806 692 815 689 808 690 b 390 144 650 524 488 310 b 796 383 626 192 792 383 b 799 379 799 383 799 382 b 347 67 799 371 581 129 b 268 -90 346 67 268 -90 b 321 67 268 -69 303 21 b 178 189 213 67 178 118 b 742 772 178 469 592 772 b 782 768 772 772 782 768 b 989 956 856 854 951 956 b 1060 914 1029 956 1056 924 b 840 729 1043 918 994 883 "},"£":{"ha":1222,"x_min":null,"x_max":null,"o":"m 290 290 b 175 389 186 299 156 363 b 463 464 196 425 331 450 b 1144 1032 675 729 951 989 b 1214 1040 1169 1038 1193 1040 b 1328 943 1288 1040 1328 1004 b 1044 542 1328 854 1242 710 b 1268 908 1172 688 1268 835 b 1189 956 1268 946 1244 964 b 608 475 1038 932 799 703 b 704 476 639 476 672 476 b 1224 421 933 476 1171 446 b 972 432 1146 428 1060 432 b 553 406 826 432 676 422 b 314 38 431 254 338 111 b 431 51 350 47 389 51 b 946 -7 592 51 785 -7 b 1188 82 1043 -7 1129 14 b 844 -50 1136 -25 999 -50 b 436 -31 708 -50 557 -31 b 203 -147 304 -31 208 -53 b 149 -74 203 -172 144 -108 b 396 379 158 19 258 194 b 290 290 293 354 242 324 "},"¤":{"ha":946,"x_min":null,"x_max":null,"o":"m 1144 913 b 871 721 921 806 890 718 b 858 724 868 721 861 721 b 857 690 858 714 858 701 b 803 560 853 632 811 560 b 804 563 803 560 803 561 b 828 669 806 576 822 611 b 747 793 833 731 803 788 b 415 494 603 808 425 600 b 486 382 411 440 413 390 b 804 558 632 368 778 561 b 811 549 808 558 811 556 b 715 410 808 525 733 428 b 885 161 746 332 886 182 b 883 160 885 160 883 160 b 656 358 850 163 660 318 b 450 293 592 321 532 285 b 353 340 428 296 376 313 b 183 217 300 306 194 217 b 183 221 183 218 183 219 b 313 410 183 236 238 329 b 306 472 308 428 304 451 b 465 760 319 606 375 689 b 378 1006 385 904 371 1007 b 532 808 389 1004 486 849 b 715 856 583 840 661 861 b 833 797 763 851 801 836 b 1129 918 917 854 1067 924 b 1144 913 1135 917 1144 915 "},"¥":{"ha":1753,"x_min":null,"x_max":null,"o":"m 836 543 b 1072 1000 942 718 1072 924 b 969 1082 1072 1063 1021 1082 b 189 493 650 1082 189 536 b 238 471 189 465 224 471 b 268 471 247 471 268 475 b 183 438 268 464 217 438 b 99 508 139 438 99 458 b 947 1107 99 671 638 1107 b 1139 957 1100 1107 1139 1033 b 967 590 1139 854 1075 772 b 1997 1183 1197 831 1599 1183 b 2207 1064 2175 1183 2207 1078 b 2014 1151 2207 1060 2165 1151 b 1043 561 1701 1151 1306 853 b 1297 493 1165 561 1297 507 b 1296 492 1297 492 1297 492 b 1111 518 1285 492 1239 518 b 997 511 1072 518 1036 519 l 924 428 l 992 428 b 1426 365 1200 428 1426 379 b 1203 374 1426 361 1351 374 b 861 354 1050 374 956 368 b 571 -87 715 168 571 -75 b 650 -67 611 -87 642 -69 b 551 -117 624 -90 592 -117 b 519 -75 529 -117 519 -107 b 700 324 519 24 650 236 b 533 278 640 315 586 296 b 567 260 532 276 551 264 b 485 249 564 254 514 249 b 418 296 447 249 418 285 b 754 411 418 342 658 399 b 790 468 765 432 778 450 b 639 403 753 457 639 440 b 615 451 639 401 615 429 b 836 543 615 507 800 536 "},"§":{"ha":1171,"x_min":null,"x_max":null,"o":"m 1186 1194 b 1349 1079 1251 1197 1349 1174 b 1061 828 1349 981 1196 828 b 996 878 1032 828 996 839 b 1060 953 996 900 1044 953 b 1038 914 1051 947 1038 931 b 1046 899 1038 907 1039 899 b 1300 1114 1060 899 1300 1029 b 1239 1149 1300 1142 1265 1149 b 668 761 1000 1149 668 825 b 838 699 668 701 808 699 b 1240 540 1117 699 1240 665 b 782 179 1240 401 965 233 l 796 174 b 864 56 833 151 864 113 b 138 -358 864 -189 375 -358 b -47 -250 64 -358 -47 -335 b 439 93 -47 -86 357 93 b 22 -224 407 93 22 -104 b 111 -261 22 -261 82 -261 b 781 86 340 -261 781 -31 b 689 158 781 138 718 156 b 524 140 636 147 581 140 b 347 193 494 140 388 144 b 208 288 274 200 208 228 b 697 685 208 457 513 633 b 585 778 640 692 585 732 b 1186 1194 585 936 885 1182 m 1157 574 b 956 669 1157 644 1033 664 b 999 593 981 654 999 629 b 711 342 999 494 844 342 b 643 390 682 342 643 353 b 707 467 643 413 693 467 b 686 425 699 457 686 443 b 696 411 686 419 688 411 b 950 625 708 411 950 542 b 893 665 950 654 919 665 b 851 663 881 665 864 664 b 276 282 578 618 276 344 b 329 239 276 258 313 244 b 818 582 329 383 701 582 b 383 250 776 582 383 363 b 488 214 383 217 446 214 b 1157 574 697 214 1157 454 "},"¨":{"ha":626,"x_min":null,"x_max":null,"o":"m 483 644 b 364 536 442 643 376 538 b 313 592 336 536 314 569 b 397 692 308 628 361 688 b 483 644 422 693 475 669 m 660 632 b 538 526 618 632 553 528 b 486 581 513 525 489 558 b 574 681 483 618 535 676 b 660 632 600 682 651 657 "},"©":{"ha":867,"x_min":null,"x_max":null,"o":"m 475 540 b 922 854 638 540 808 715 b 925 851 925 854 925 853 b 447 475 921 792 674 475 b 286 628 328 475 286 557 b 863 1188 286 874 611 1188 b 996 1053 938 1188 996 1135 b 922 854 996 972 950 879 b 971 1039 932 871 971 954 b 864 1144 971 1106 928 1144 b 378 635 696 1144 378 872 b 475 540 378 565 432 540 m 871 851 b 540 653 783 768 639 653 b 469 717 503 653 469 688 b 806 1029 469 868 690 1029 b 863 983 828 1029 863 1001 b 782 881 863 946 815 906 b 781 883 781 879 778 882 b 828 975 804 910 824 938 b 557 711 738 969 557 786 b 583 694 557 701 569 694 b 867 854 651 694 768 779 b 871 851 871 856 874 854 "},"«":{"ha":1435,"x_min":null,"x_max":null,"o":"m 251 314 b 911 657 376 314 911 632 b 943 671 911 663 925 671 b 1042 622 982 671 1042 651 b 438 293 1042 568 525 339 b 906 0 733 243 906 43 b 904 -3 906 -3 904 -3 b 285 210 782 114 536 210 l 194 206 b 251 314 183 206 236 314 m 706 353 b 1297 658 818 353 1297 636 b 1325 671 1297 664 1310 671 b 1414 628 1358 671 1414 654 b 872 332 1414 578 951 374 b 1292 71 1138 288 1292 108 b 1290 68 1292 68 1290 68 b 736 257 1182 172 963 257 l 656 256 b 706 353 646 256 693 353 "},"®":{"ha":932,"x_min":null,"x_max":null,"o":"m 715 633 l 682 644 b 572 771 632 664 592 722 b 450 639 572 771 461 639 b 667 978 426 639 625 978 b 726 929 693 978 750 933 b 606 804 689 922 642 849 b 847 965 642 818 847 924 b 790 1001 847 996 815 1001 b 569 946 647 1001 569 931 b 801 1025 569 961 699 1025 b 910 957 858 1025 901 1007 b 647 772 925 863 718 790 b 726 643 650 739 679 674 b 936 854 803 703 886 794 b 938 851 938 854 938 853 b 726 590 924 781 799 649 b 461 475 660 536 551 475 b 299 628 339 475 299 557 b 875 1188 299 874 622 1188 b 1008 1053 950 1188 1008 1135 b 936 854 1008 972 963 879 b 985 1039 943 871 985 954 b 876 1144 985 1106 940 1144 b 390 635 708 1144 390 872 b 488 540 390 565 444 540 b 686 614 554 540 619 571 "},"´":{"ha":524,"x_min":null,"x_max":null,"o":"m 517 731 b 518 749 517 744 508 749 b 617 690 550 749 617 717 b 285 535 617 640 458 535 b 224 551 231 535 218 551 b 517 731 369 551 517 678 "},"µ":{"ha":701,"x_min":null,"x_max":null,"o":"m -286 -390 b 325 540 -197 -190 92 339 b 344 549 333 547 339 549 b 432 458 378 549 432 493 b 417 461 432 453 426 460 b 368 429 404 463 388 450 b 81 56 264 319 171 192 b 422 299 122 22 357 235 b 667 531 496 369 589 469 b 688 538 675 536 682 538 b 774 449 719 538 774 483 b 757 451 774 443 769 450 b 711 419 747 451 729 439 b 611 297 690 397 658 358 b 493 72 544 204 493 110 b 865 353 561 72 779 285 b 878 346 875 358 881 350 b 438 -7 804 278 536 -7 b 374 64 418 -7 374 31 b 524 363 374 119 442 246 b 94 -7 383 219 179 -7 b 53 14 67 -7 53 15 b -221 -467 -42 -137 -131 -301 b 203 -36 -110 -315 163 -49 b 208 -44 208 -36 208 -44 b -258 -643 11 -203 -243 -576 b -275 -647 -260 -646 -268 -647 b -346 -551 -329 -653 -350 -576 b -286 -390 -340 -510 -314 -449 "},"¶":{"ha":1046,"x_min":null,"x_max":null,"o":"m 1903 983 b 1396 1057 1903 983 1675 1057 b 1286 1053 1361 1057 1324 1056 b 250 -369 894 639 250 -261 b 265 -376 250 -375 260 -376 b 374 -332 306 -376 374 -326 b 244 -401 374 -340 294 -401 b 210 -362 235 -401 210 -397 b 1132 1039 210 -140 806 672 b 994 1015 1088 1033 1042 1025 b 153 -246 431 313 163 -246 b 390 292 131 -246 240 44 b 361 290 390 292 369 290 b 171 451 267 290 171 339 b 1188 1097 171 743 810 1071 b 1401 1290 1286 1215 1367 1290 b 1508 1239 1453 1290 1483 1268 b 1335 1103 1483 1250 1424 1201 b 1903 983 1665 1103 1903 994 "},"¸":{"ha":451,"x_min":null,"x_max":null,"o":"m 235 -78 b 299 -65 251 -71 276 -65 b 367 -142 343 -65 383 -85 b -86 -414 326 -271 76 -389 b 275 -160 -19 -390 235 -257 b 156 -161 299 -99 161 -161 b 142 -146 150 -161 140 -151 b 283 21 143 -135 271 21 b 292 13 288 21 293 19 b 235 -78 292 8 257 -44 "},"»":{"ha":1281,"x_min":null,"x_max":null,"o":"m 1081 381 b 871 593 1026 415 871 508 b 938 686 871 640 938 721 b 1257 403 938 576 1213 403 b 1225 306 1283 403 1243 306 b 379 -37 900 306 385 -37 b 378 -36 378 -37 378 -37 b 1081 381 378 6 678 264 m 728 410 b 538 604 679 442 538 528 b 599 688 538 647 599 721 b 890 431 599 590 850 431 b 860 342 913 431 878 342 b 90 29 564 342 94 29 b 89 31 89 29 89 29 b 728 410 89 68 363 304 "},"¿":{"ha":1193,"x_min":null,"x_max":null,"o":"m 421 3 b 986 361 640 7 936 219 b 781 254 963 361 786 264 b 1018 422 793 283 963 422 b 1088 339 1046 422 1096 383 b 476 -53 1046 121 711 -49 b 225 111 324 -56 218 -6 b 1099 833 244 401 1093 743 b 1072 846 1100 846 1082 846 b 1031 836 1054 846 1031 835 b 1111 876 1032 851 1079 876 b 1176 810 1153 878 1178 844 b 268 94 1160 576 285 351 b 421 3 265 29 332 1 m 1065 1004 b 1210 1135 1110 1006 1194 1133 b 1268 1074 1239 1136 1265 1099 b 1160 951 1271 1035 1203 956 b 1065 1004 1132 950 1072 978 "},"×":{"ha":813,"x_min":null,"x_max":null,"o":"m 432 240 b 122 13 233 104 189 8 b 71 49 96 15 69 22 b 388 333 75 99 276 253 b 321 525 369 379 319 490 b 389 581 322 561 354 583 b 464 382 401 579 447 428 b 950 610 608 472 885 614 b 953 608 951 610 953 610 b 494 288 843 526 635 399 b 606 -31 569 63 563 74 b 606 -31 606 -31 606 -31 b 432 240 578 -29 460 169 "},"Þ":{"ha":1453,"x_min":null,"x_max":null,"o":"m 322 -215 b 372 -54 322 -176 340 -121 b 238 24 289 -47 238 -19 b 478 208 238 103 465 224 b 289 32 436 183 289 93 b 325 17 289 25 297 17 b 413 24 350 17 381 19 b 1106 939 564 299 875 700 b 103 349 661 888 103 515 b 199 240 103 292 163 243 b 176 239 199 240 199 239 b 8 388 96 239 -4 283 b 1150 985 33 589 474 957 b 1364 1142 1247 1081 1325 1142 b 1476 1035 1414 1142 1469 1093 b 1438 1056 1467 1050 1451 1056 b 1322 979 1415 1056 1375 1026 b 1713 700 1485 960 1713 888 b 475 -53 1713 308 810 -17 b 382 -247 418 -144 382 -214 b 404 -299 382 -272 381 -294 b 322 -215 360 -314 322 -278 m 1282 943 b 543 51 1078 749 743 340 b 1643 732 961 158 1629 493 b 1282 943 1650 854 1493 929 "},"ß":{"ha":814,"x_min":null,"x_max":null,"o":"m -26 90 b 443 785 115 374 294 624 b 918 1054 661 1019 808 1065 b 1050 932 999 1046 1049 1004 b 586 525 1056 739 728 549 b 803 340 699 519 801 458 b 217 -118 807 108 444 -129 b 108 -28 178 -117 110 -90 b 533 354 103 140 438 343 b 176 7 426 300 140 108 b 222 -24 181 -7 196 -24 b 728 390 376 -24 728 217 b 582 494 728 476 651 494 b 476 486 536 494 493 486 b 451 507 469 486 447 506 b 981 979 564 532 981 839 b 925 1022 981 1014 951 1022 b 439 615 778 1019 575 792 b 132 158 333 478 213 300 b -68 -344 35 -10 -50 -200 b -40 -410 -75 -379 -74 -407 b -161 -304 -103 -437 -169 -389 b -26 90 -151 -203 -101 -61 "},"æ":{"ha":842,"x_min":null,"x_max":null,"o":"m 492 188 b 456 129 483 176 475 164 b 432 68 442 106 433 82 b 465 39 431 51 435 39 b 974 356 582 39 836 249 b 979 350 979 358 983 354 b 417 -17 874 253 611 -17 b 317 69 356 -17 317 22 b 338 164 317 103 325 133 b 388 253 349 192 367 222 b 32 -7 322 192 86 -7 b 19 -3 29 -7 22 -4 b -42 90 -6 10 -42 63 b 529 549 -42 242 274 549 b 647 488 574 549 629 532 b 829 549 721 529 790 549 b 914 478 851 549 914 517 b 492 188 914 392 649 192 m 393 290 b 535 413 417 310 494 386 b 629 479 567 439 600 461 b 568 507 619 499 597 508 b 296 368 488 503 386 444 b 76 76 164 256 63 83 b 85 76 78 75 81 75 b 393 290 131 92 322 229 m 869 507 b 511 215 715 457 557 289 b 869 507 632 229 863 454 "},"ð":{"ha":525,"x_min":null,"x_max":null,"o":"m 504 674 b 256 517 363 628 251 554 b 190 571 257 511 194 538 b 483 729 185 608 318 694 b 288 910 439 831 368 899 b 369 915 296 918 331 924 b 560 739 428 901 504 846 b 638 743 588 742 614 743 b 804 713 743 743 797 719 b 744 715 785 715 764 715 b 579 696 690 715 635 708 l 588 675 b 614 526 606 628 614 576 b 553 293 614 443 592 361 b 106 -4 460 133 268 -4 b -7 103 42 -4 -7 51 b 524 538 -7 321 306 538 b 504 674 522 571 522 608 m 101 21 b 522 508 199 22 511 315 b 101 21 296 456 39 64 "},"÷":{"ha":875,"x_min":null,"x_max":null,"o":"m 240 196 b 171 271 199 196 171 243 b 517 335 171 303 408 335 b 888 290 697 335 888 310 b 883 286 888 289 888 286 b 240 196 714 286 278 196 m 719 497 b 586 381 674 496 604 382 b 529 440 558 379 532 415 b 625 550 528 479 583 547 b 719 497 654 551 713 524 m 456 108 b 322 -8 411 107 339 -7 b 265 51 293 -10 268 26 b 361 161 264 90 319 158 b 456 108 389 163 447 135 "},"þ":{"ha":610,"x_min":null,"x_max":null,"o":"m -369 -531 b 446 847 -261 -142 172 488 b 560 974 488 901 528 946 b 613 1001 582 990 601 1001 b 719 940 690 1006 747 925 b 521 757 671 963 581 832 b 146 231 415 622 308 478 b 607 535 267 363 536 558 b 672 454 624 528 672 475 b 213 1 672 329 403 1 b 94 82 158 1 94 36 b 101 88 94 89 101 92 b 154 47 101 74 126 47 b 558 479 294 47 542 401 b 76 119 538 479 318 374 l 44 68 b -279 -575 -75 -132 -246 -383 b -253 -642 -286 -610 -286 -637 b -369 -531 -318 -667 -381 -615 "},"˚":{"ha":444,"x_min":null,"x_max":null,"o":"m 332 569 b 485 649 407 569 482 649 b 489 644 486 649 489 647 b 311 499 489 618 393 499 b 231 578 261 499 231 525 b 446 785 231 668 356 785 b 514 721 482 785 514 768 b 485 650 514 688 485 650 b 499 715 482 650 499 682 b 468 751 499 739 485 751 b 315 583 417 751 315 636 b 332 569 315 576 317 569 "},"ˇ":{"ha":543,"x_min":null,"x_max":null,"o":"m 300 567 b 193 736 300 626 204 736 b 199 742 193 736 189 742 b 354 644 233 742 326 678 b 613 713 400 668 546 713 b 628 706 619 713 632 706 b 338 550 607 706 338 576 b 300 567 338 549 300 556 "},"Ł":{"ha":1306,"x_min":null,"x_max":null,"o":"m 1629 -206 b 982 -96 1474 -142 1233 -96 b 757 -108 907 -96 832 -100 b 125 -393 306 -162 63 -347 b 21 -283 96 -393 26 -344 b 357 -90 14 -210 174 -137 b 589 126 428 -40 510 40 b 404 71 481 97 421 69 b 343 118 386 75 343 92 b 669 218 335 151 540 199 b 740 300 725 282 732 292 b 578 289 686 293 632 289 b 128 513 339 289 143 386 b 163 589 125 531 142 565 b 276 633 203 636 267 639 b 221 576 253 625 222 601 b 639 351 217 482 382 351 b 719 356 665 351 692 353 b 792 365 743 358 768 361 b 1606 1158 1065 707 1358 1153 b 1738 1022 1686 1160 1747 1111 b 906 336 1711 783 1339 457 l 813 229 b 875 231 833 231 854 231 b 1157 203 1017 231 1154 215 b 1150 200 1157 201 1157 200 b 753 163 989 197 857 182 b 506 -58 664 68 579 -8 b 704 -35 576 -46 644 -37 b 803 -32 736 -33 768 -32 b 1629 -206 1104 -32 1493 -97 m 1600 1119 b 968 410 1488 1085 1233 731 b 1661 1069 1414 560 1675 951 b 1600 1119 1657 1106 1638 1131 "},"À":{"ha":1374,"x_min":null,"x_max":null,"o":"m 1654 1428 b 1947 1249 1654 1375 1801 1249 b 1886 1233 1953 1249 1940 1233 b 1554 1388 1713 1233 1554 1338 b 1653 1446 1554 1414 1622 1446 b 1654 1428 1663 1446 1654 1442 m 1679 1064 b 1317 440 1599 979 1426 707 b 1561 378 1408 428 1540 397 b 1306 411 1561 375 1436 401 l 1304 411 b 1133 -117 1246 289 1124 -25 b 1154 -133 1135 -132 1144 -133 b 1272 -100 1196 -133 1239 -111 b 1129 -171 1222 -146 1172 -171 b 1031 -90 1088 -171 1035 -128 b 1171 418 1015 39 1110 282 b 1118 418 1153 418 1135 418 b 928 410 1054 418 993 417 b -36 -324 733 228 271 -324 b -203 -178 -112 -324 -203 -278 b -147 -83 -203 -119 -169 -83 b -169 -135 -158 -93 -169 -117 b -68 -219 -169 -196 -126 -219 b 851 401 229 -219 650 222 b 315 228 483 361 313 256 b 236 304 314 201 239 243 b 922 465 231 418 738 458 l 924 465 b 1532 1089 1067 608 1456 1010 b 1643 1167 1582 1142 1610 1167 b 1744 1106 1689 1167 1739 1119 b 1679 1064 1715 1101 1700 1086 m 1475 979 b 988 467 1460 965 1447 951 b 1188 458 1054 467 1121 464 b 1475 979 1246 582 1396 869 "},"Á":{"ha":1374,"x_min":null,"x_max":null,"o":"m 1769 1414 b 1774 1431 1772 1428 1763 1432 b 1863 1361 1801 1428 1867 1388 b 1514 1247 1857 1311 1688 1226 b 1454 1272 1461 1254 1451 1272 b 1769 1414 1600 1254 1764 1361 m 1679 1064 b 1317 440 1599 979 1426 707 b 1561 378 1408 428 1540 397 b 1306 411 1561 375 1436 401 l 1304 411 b 1133 -117 1246 289 1124 -25 b 1154 -133 1135 -132 1144 -133 b 1272 -100 1196 -133 1239 -111 b 1129 -171 1222 -146 1172 -171 b 1031 -90 1088 -171 1035 -128 b 1171 418 1015 39 1110 282 b 1118 418 1153 418 1135 418 b 928 410 1054 418 993 417 b -36 -324 733 228 271 -324 b -203 -178 -112 -324 -203 -278 b -147 -83 -203 -119 -169 -83 b -169 -135 -158 -93 -169 -117 b -68 -219 -169 -196 -126 -219 b 851 401 229 -219 650 222 b 315 228 483 361 313 256 b 236 304 314 201 239 243 b 922 465 231 418 738 458 l 924 465 b 1532 1089 1067 608 1456 1010 b 1643 1167 1582 1142 1610 1167 b 1744 1106 1689 1167 1739 1119 b 1679 1064 1715 1101 1700 1086 m 1475 979 b 988 467 1460 965 1447 951 b 1188 458 1054 467 1121 464 b 1475 979 1246 582 1396 869 "},"Â":{"ha":1374,"x_min":null,"x_max":null,"o":"m 1679 1064 b 1317 440 1599 979 1426 707 b 1561 378 1408 428 1540 397 b 1306 411 1561 375 1436 401 l 1304 411 b 1133 -117 1246 289 1124 -25 b 1154 -133 1135 -132 1144 -133 b 1272 -100 1196 -133 1239 -111 b 1129 -171 1222 -146 1172 -171 b 1031 -90 1088 -171 1035 -128 b 1171 418 1015 39 1110 282 b 1118 418 1153 418 1135 418 b 928 410 1054 418 993 417 b -36 -324 733 228 271 -324 b -203 -178 -112 -324 -203 -278 b -147 -83 -203 -119 -169 -83 b -169 -135 -158 -93 -169 -117 b -68 -219 -169 -196 -126 -219 b 851 401 229 -219 650 222 b 315 228 483 361 313 256 b 236 304 314 201 239 243 b 922 465 231 418 738 458 l 924 465 b 1532 1089 1067 608 1456 1010 b 1643 1167 1582 1142 1610 1167 b 1744 1106 1689 1167 1739 1119 b 1679 1064 1715 1101 1700 1086 m 1475 979 b 988 467 1460 965 1447 951 b 1188 458 1054 467 1121 464 b 1475 979 1246 582 1396 869 m 1786 1368 b 1863 1185 1768 1306 1811 1204 b 1857 1179 1863 1185 1867 1179 b 1696 1313 1818 1178 1718 1233 b 1400 1210 1600 1242 1467 1208 b 1383 1214 1393 1207 1379 1214 b 1719 1408 1506 1236 1650 1328 b 1786 1368 1726 1418 1792 1383 "},"Ã":{"ha":1374,"x_min":null,"x_max":null,"o":"m 1607 1288 b 1561 1293 1593 1290 1578 1293 b 1464 1236 1525 1293 1486 1281 b 1593 1368 1450 1293 1504 1368 b 1792 1290 1681 1368 1725 1310 b 1978 1371 1860 1271 1947 1332 b 1786 1236 1956 1325 1876 1231 b 1607 1288 1725 1240 1653 1278 m 1679 1064 b 1317 440 1599 979 1426 707 b 1561 378 1408 428 1540 397 b 1306 411 1561 375 1436 401 l 1304 411 b 1133 -117 1246 289 1124 -25 b 1154 -133 1135 -132 1144 -133 b 1272 -100 1196 -133 1239 -111 b 1129 -171 1222 -146 1172 -171 b 1031 -90 1088 -171 1035 -128 b 1171 418 1015 39 1110 282 b 1118 418 1153 418 1135 418 b 928 410 1054 418 993 417 b -36 -324 733 228 271 -324 b -203 -178 -112 -324 -203 -278 b -147 -83 -203 -119 -169 -83 b -169 -135 -158 -93 -169 -117 b -68 -219 -169 -196 -126 -219 b 851 401 229 -219 650 222 b 315 228 483 361 313 256 b 236 304 314 201 239 243 b 922 465 231 418 738 458 l 924 465 b 1532 1089 1067 608 1456 1010 b 1643 1167 1582 1142 1610 1167 b 1744 1106 1689 1167 1739 1119 b 1679 1064 1715 1101 1700 1086 m 1475 979 b 988 467 1460 965 1447 951 b 1188 458 1054 467 1121 464 b 1475 979 1246 582 1396 869 "},"Ä":{"ha":1374,"x_min":null,"x_max":null,"o":"m 1746 1356 b 1622 1247 1703 1354 1638 1249 b 1571 1303 1596 1247 1574 1281 b 1658 1403 1568 1339 1619 1399 b 1746 1356 1683 1404 1736 1381 m 1921 1343 b 1800 1238 1879 1343 1813 1239 b 1747 1292 1774 1236 1750 1269 b 1833 1392 1746 1329 1796 1388 b 1921 1343 1860 1393 1913 1368 m 1679 1064 b 1317 440 1599 979 1426 707 b 1561 378 1408 428 1540 397 b 1306 411 1561 375 1436 401 l 1304 411 b 1133 -117 1246 289 1124 -25 b 1154 -133 1135 -132 1144 -133 b 1272 -100 1196 -133 1239 -111 b 1129 -171 1222 -146 1172 -171 b 1031 -90 1088 -171 1035 -128 b 1171 418 1015 39 1110 282 b 1118 418 1153 418 1135 418 b 928 410 1054 418 993 417 b -36 -324 733 228 271 -324 b -203 -178 -112 -324 -203 -278 b -147 -83 -203 -119 -169 -83 b -169 -135 -158 -93 -169 -117 b -68 -219 -169 -196 -126 -219 b 851 401 229 -219 650 222 b 315 228 483 361 313 256 b 236 304 314 201 239 243 b 922 465 231 418 738 458 l 924 465 b 1532 1089 1067 608 1456 1010 b 1643 1167 1582 1142 1610 1167 b 1744 1106 1689 1167 1739 1119 b 1679 1064 1715 1101 1700 1086 m 1475 979 b 988 467 1460 965 1447 951 b 1188 458 1054 467 1121 464 b 1475 979 1246 582 1396 869 "},"Å":{"ha":1374,"x_min":null,"x_max":null,"o":"m 1733 1286 b 1888 1367 1808 1286 1885 1367 b 1890 1361 1888 1367 1890 1365 b 1714 1215 1890 1336 1796 1215 b 1635 1296 1664 1215 1635 1243 b 1849 1501 1635 1385 1757 1501 b 1917 1438 1885 1501 1917 1485 b 1888 1368 1917 1404 1888 1368 b 1900 1432 1885 1368 1900 1399 b 1871 1468 1900 1456 1888 1468 b 1718 1300 1821 1468 1718 1354 b 1733 1286 1718 1294 1721 1286 m 1679 1064 b 1317 440 1599 979 1426 707 b 1561 378 1408 428 1540 397 b 1306 411 1561 375 1436 401 l 1304 411 b 1133 -117 1246 289 1124 -25 b 1154 -133 1135 -132 1144 -133 b 1272 -100 1196 -133 1239 -111 b 1129 -171 1222 -146 1172 -171 b 1031 -90 1088 -171 1035 -128 b 1171 418 1015 39 1110 282 b 1118 418 1153 418 1135 418 b 928 410 1054 418 993 417 b -36 -324 733 228 271 -324 b -203 -178 -112 -324 -203 -278 b -147 -83 -203 -119 -169 -83 b -169 -135 -158 -93 -169 -117 b -68 -219 -169 -196 -126 -219 b 851 401 229 -219 650 222 b 315 228 483 361 313 256 b 236 304 314 201 239 243 b 922 465 231 418 738 458 l 924 465 b 1532 1089 1067 608 1456 1010 b 1643 1167 1582 1142 1610 1167 b 1744 1106 1689 1167 1739 1119 b 1679 1064 1715 1101 1700 1086 m 1475 979 b 988 467 1460 965 1447 951 b 1188 458 1054 467 1121 464 b 1475 979 1246 582 1396 869 "},"Æ":{"ha":2171,"x_min":null,"x_max":null,"o":"m 2436 993 b 2050 656 2429 833 2203 656 b 1989 715 2018 656 1986 688 b 2088 808 1990 743 2057 797 b 2051 744 2068 789 2040 744 b 2404 1026 2107 744 2397 899 b 2249 1119 2406 1106 2311 1119 b 1639 688 2017 1119 1642 819 b 1935 536 1636 563 1839 536 b 1872 469 1949 536 1913 469 b 1135 -82 1618 469 1139 101 b 1249 -183 1133 -137 1169 -175 b 2369 381 1524 -214 2121 179 b 2372 368 2372 381 2376 371 b 1215 -278 2206 207 1582 -286 b 1003 -99 1088 -275 1007 -197 b 1144 418 996 35 1083 279 b 1092 418 1126 418 1108 418 b 901 410 1028 418 967 417 b -62 -324 707 228 244 -324 b -229 -178 -139 -324 -229 -278 b -174 -83 -229 -119 -196 -83 b -196 -135 -185 -93 -196 -117 b -94 -219 -196 -196 -153 -219 b 825 401 203 -219 624 222 b 289 228 457 361 286 256 b 210 304 288 201 211 243 b 786 458 203 400 579 447 b 896 465 822 461 860 464 l 897 465 b 1508 1094 1040 608 1433 1015 b 1619 1172 1560 1147 1588 1172 b 1722 1111 1667 1172 1717 1125 b 1679 1093 1706 1108 1694 1104 b 1290 440 1568 1007 1421 718 b 1490 397 1356 431 1439 414 b 1742 478 1588 443 1679 472 b 1519 683 1672 486 1504 549 b 2226 1154 1551 929 1969 1154 b 2436 993 2326 1154 2444 1133 m 1449 979 b 961 467 1433 965 1421 951 b 1161 458 1028 467 1094 464 b 1449 979 1219 582 1369 869 m 1279 411 b 1192 207 1249 353 1221 283 b 1471 388 1275 278 1375 340 b 1279 411 1422 394 1353 406 "},"Ç":{"ha":1211,"x_min":null,"x_max":null,"o":"m 1546 982 b 1192 650 1546 843 1328 650 b 1133 739 1156 650 1133 696 b 1211 833 1133 772 1199 833 b 1182 771 1214 833 1172 782 b 1494 1007 1276 771 1494 894 b 1354 1106 1494 1069 1442 1106 b 208 -7 926 1106 179 381 b 413 -156 218 -124 304 -156 b 1428 346 674 -156 1099 79 b 1439 338 1429 347 1443 340 b 481 -235 1224 126 788 -175 b 308 -346 415 -247 343 -286 b 392 -325 338 -329 368 -325 b 474 -408 418 -325 492 -332 b 53 -646 443 -532 153 -646 b 46 -639 40 -646 43 -639 b 354 -446 82 -639 313 -528 b 328 -400 372 -408 347 -400 b 226 -431 300 -400 256 -410 b 211 -390 221 -435 201 -411 b 375 -247 224 -365 281 -296 l 367 -247 b 81 -10 217 -244 89 -179 b 1342 1140 53 476 872 1140 b 1546 982 1463 1140 1546 1089 "},"È":{"ha":1143,"x_min":null,"x_max":null,"o":"m 1190 1410 b 1485 1231 1190 1357 1339 1231 b 1424 1215 1489 1231 1478 1215 b 1092 1369 1249 1215 1092 1319 b 1189 1428 1092 1396 1158 1428 b 1190 1410 1200 1428 1190 1424 m 1436 993 b 1049 656 1428 833 1203 656 b 989 715 1018 656 986 688 b 1088 808 990 743 1057 797 b 1051 744 1068 789 1040 744 b 1403 1026 1107 744 1397 899 b 1249 1119 1406 1106 1313 1119 b 640 686 1017 1119 643 818 b 935 536 639 561 839 536 b 872 469 949 536 911 469 b 138 -79 618 469 142 104 b 251 -181 136 -135 172 -172 b 1369 381 526 -211 1122 179 b 1372 368 1372 381 1375 371 b 217 -278 1206 207 582 -286 b 7 -79 81 -275 -7 -186 b 742 478 40 203 544 460 b 519 683 672 486 503 549 b 1226 1154 551 929 969 1154 b 1436 993 1326 1154 1444 1133 "},"É":{"ha":1143,"x_min":null,"x_max":null,"o":"m 1363 1400 b 1368 1417 1365 1414 1356 1418 b 1457 1349 1397 1413 1461 1371 b 1133 1240 1450 1307 1292 1240 b 1057 1246 1108 1240 1082 1242 b 996 1271 1001 1254 992 1272 b 1042 1268 1011 1268 1026 1268 b 1363 1400 1185 1268 1353 1356 m 1436 993 b 1049 656 1428 833 1203 656 b 989 715 1018 656 986 688 b 1088 808 990 743 1057 797 b 1051 744 1068 789 1040 744 b 1403 1026 1107 744 1397 899 b 1249 1119 1406 1106 1313 1119 b 640 686 1017 1119 643 818 b 935 536 639 561 839 536 b 872 469 949 536 911 469 b 138 -79 618 469 142 104 b 251 -181 136 -135 172 -172 b 1369 381 526 -211 1122 179 b 1372 368 1372 381 1375 371 b 217 -278 1206 207 582 -286 b 7 -79 81 -275 -7 -186 b 742 478 40 203 544 460 b 519 683 672 486 503 549 b 1226 1154 551 929 969 1154 b 1436 993 1326 1154 1444 1133 "},"Ê":{"ha":1143,"x_min":null,"x_max":null,"o":"m 1436 993 b 1049 656 1428 833 1203 656 b 989 715 1018 656 986 688 b 1088 808 990 743 1057 797 b 1051 744 1068 789 1040 744 b 1403 1026 1107 744 1397 899 b 1249 1119 1406 1106 1313 1119 b 640 686 1017 1119 643 818 b 935 536 639 561 839 536 b 872 469 949 536 911 469 b 138 -79 618 469 142 104 b 251 -181 136 -135 172 -172 b 1369 381 526 -211 1122 179 b 1372 368 1372 381 1375 371 b 217 -278 1206 207 582 -286 b 7 -79 81 -275 -7 -186 b 742 478 40 203 544 460 b 519 683 672 486 503 549 b 1226 1154 551 929 969 1154 b 1436 993 1326 1154 1444 1133 m 1358 1381 b 1435 1197 1340 1318 1383 1217 b 1429 1192 1435 1197 1439 1192 b 1268 1325 1390 1190 1290 1246 b 972 1222 1172 1254 1039 1221 b 956 1226 965 1219 951 1226 b 1292 1421 1078 1249 1222 1340 b 1358 1381 1299 1431 1364 1396 "},"Ë":{"ha":1143,"x_min":null,"x_max":null,"o":"m 1301 1339 b 1179 1231 1260 1338 1193 1232 b 1128 1286 1153 1231 1129 1264 b 1214 1386 1125 1322 1176 1382 b 1301 1339 1238 1388 1293 1364 m 1476 1326 b 1356 1221 1435 1326 1369 1222 b 1303 1275 1328 1219 1306 1253 b 1390 1375 1301 1313 1351 1371 b 1476 1326 1415 1376 1467 1351 m 1436 993 b 1049 656 1428 833 1203 656 b 989 715 1018 656 986 688 b 1088 808 990 743 1057 797 b 1051 744 1068 789 1040 744 b 1403 1026 1107 744 1397 899 b 1249 1119 1406 1106 1313 1119 b 640 686 1017 1119 643 818 b 935 536 639 561 839 536 b 872 469 949 536 911 469 b 138 -79 618 469 142 104 b 251 -181 136 -135 172 -172 b 1369 381 526 -211 1122 179 b 1372 368 1372 381 1375 371 b 217 -278 1206 207 582 -286 b 7 -79 81 -275 -7 -186 b 742 478 40 203 544 460 b 519 683 672 486 503 549 b 1226 1154 551 929 969 1154 b 1436 993 1326 1154 1444 1133 "},"Ì":{"ha":1117,"x_min":null,"x_max":null,"o":"m 1315 1442 b 1610 1263 1315 1389 1463 1263 b 1547 1246 1614 1263 1601 1246 b 1215 1401 1372 1246 1215 1351 b 1314 1460 1215 1428 1283 1460 b 1315 1442 1324 1460 1315 1456 m 733 -26 b 1388 451 838 63 1278 413 b 547 -303 1247 360 546 -217 b 461 -257 547 -326 461 -279 b 1364 1093 460 -29 1365 961 b 1288 1151 1364 1144 1328 1151 b 140 221 960 1147 138 456 b 192 203 140 204 158 203 b 254 213 207 203 243 211 b 133 164 254 201 185 164 b 47 258 74 163 49 219 b 1292 1175 44 567 851 1169 b 1428 1058 1389 1176 1426 1125 b 733 -26 1431 826 822 196 "},"Í":{"ha":1117,"x_min":null,"x_max":null,"o":"m 1408 1464 b 1410 1482 1408 1478 1400 1482 b 1510 1424 1440 1482 1510 1450 b 1176 1268 1510 1374 1350 1268 b 1114 1285 1121 1268 1110 1285 b 1408 1464 1261 1285 1408 1411 m 733 -26 b 1388 451 838 63 1278 413 b 547 -303 1247 360 546 -217 b 461 -257 547 -326 461 -279 b 1364 1093 460 -29 1365 961 b 1288 1151 1364 1144 1328 1151 b 140 221 960 1147 138 456 b 192 203 140 204 158 203 b 254 213 207 203 243 211 b 133 164 254 201 185 164 b 47 258 74 163 49 219 b 1292 1175 44 567 851 1169 b 1428 1058 1389 1176 1426 1125 b 733 -26 1431 826 822 196 "},"Î":{"ha":1117,"x_min":null,"x_max":null,"o":"m 733 -26 b 1388 451 838 63 1278 413 b 547 -303 1247 360 546 -217 b 461 -257 547 -326 461 -279 b 1364 1093 460 -29 1365 961 b 1288 1151 1364 1144 1328 1151 b 140 221 960 1147 138 456 b 192 203 140 204 158 203 b 254 213 207 203 243 211 b 133 164 254 201 185 164 b 47 258 74 163 49 219 b 1292 1175 44 567 851 1169 b 1428 1058 1389 1176 1426 1125 b 733 -26 1431 826 822 196 m 1422 1413 b 1499 1229 1404 1350 1447 1249 b 1493 1224 1499 1229 1503 1224 b 1332 1357 1454 1222 1354 1278 b 1036 1254 1236 1286 1103 1253 b 1019 1258 1029 1251 1015 1258 b 1356 1453 1142 1281 1286 1372 b 1422 1413 1363 1463 1428 1428 "},"Ï":{"ha":1117,"x_min":null,"x_max":null,"o":"m 1379 1367 b 1257 1258 1338 1365 1271 1260 b 1206 1314 1231 1258 1207 1292 b 1292 1414 1203 1350 1254 1410 b 1379 1367 1317 1415 1371 1392 m 1556 1354 b 1433 1249 1513 1354 1447 1250 b 1381 1303 1407 1247 1383 1281 b 1468 1403 1379 1340 1429 1399 b 1556 1354 1493 1404 1544 1379 m 733 -26 b 1388 451 838 63 1278 413 b 547 -303 1247 360 546 -217 b 461 -257 547 -326 461 -279 b 1364 1093 460 -29 1365 961 b 1288 1151 1364 1144 1328 1151 b 140 221 960 1147 138 456 b 192 203 140 204 158 203 b 254 213 207 203 243 211 b 133 164 254 201 185 164 b 47 258 74 163 49 219 b 1292 1175 44 567 851 1169 b 1428 1058 1389 1176 1426 1125 b 733 -26 1431 826 822 196 "},"Ð":{"ha":1686,"x_min":null,"x_max":null,"o":"m 1358 1090 b 525 685 949 1096 525 822 b 569 601 525 647 543 617 b 454 726 508 601 454 660 b 1257 1136 454 936 876 1135 b 1861 722 1631 1138 1868 981 b 246 -287 1850 251 963 -287 b 1 -142 163 -287 1 -267 b 590 333 1 13 294 229 b 582 326 590 332 588 331 b 53 -140 344 215 53 15 b 200 -210 53 -200 144 -210 b 1778 810 819 -210 1778 351 b 1358 1090 1778 988 1563 1088 m 800 507 b 733 576 760 507 733 550 b 1007 613 733 601 900 611 b 1363 963 1144 797 1294 963 b 1458 904 1403 963 1450 918 b 1143 608 1433 922 1292 779 b 1408 568 1272 600 1408 581 b 1403 565 1408 567 1408 565 b 1089 546 1292 565 1183 556 b 781 117 929 358 781 160 b 861 138 804 117 828 121 b 765 76 856 118 793 76 b 726 118 747 76 726 90 b 947 528 726 179 825 354 b 800 507 867 517 813 507 "},"Ñ":{"ha":1639,"x_min":null,"x_max":null,"o":"m 1583 1140 b 1538 1146 1569 1143 1554 1146 b 1440 1089 1500 1146 1461 1133 b 1568 1221 1425 1146 1479 1221 b 1767 1143 1656 1221 1700 1163 b 1953 1224 1836 1124 1924 1185 b 1761 1089 1932 1178 1851 1083 b 1583 1140 1700 1093 1629 1131 m 1379 313 b 1729 819 1476 499 1617 697 b 674 -149 1168 496 674 -68 b 751 -128 674 -167 757 -122 b 615 -196 715 -174 643 -196 b 569 -144 592 -196 569 -171 b 1275 1060 569 33 1275 863 b 1158 1136 1275 1125 1211 1136 b 131 396 768 1136 131 483 b 157 371 131 379 144 371 b 225 382 171 371 213 378 b 108 336 225 369 142 336 b 38 413 67 336 38 371 b 1158 1171 38 636 744 1171 b 1361 990 1290 1171 1361 1104 b 857 154 1361 836 1046 401 b 1935 1001 1182 549 1822 1001 b 2043 888 1972 1001 2046 924 b 2007 904 2033 904 2015 904 b 1417 136 1924 904 1567 439 b 1336 -126 1368 38 1336 -60 b 1533 -276 1336 -246 1418 -276 b 1575 -275 1547 -276 1561 -276 b 1978 -125 1738 -267 1894 -165 b 1560 -307 1842 -242 1638 -301 b 1515 -308 1544 -308 1529 -308 b 1251 -89 1365 -308 1251 -249 b 1379 313 1251 21 1303 168 "},"Ò":{"ha":1453,"x_min":null,"x_max":null,"o":"m 1264 1396 b 1557 1217 1264 1343 1410 1217 b 1494 1200 1563 1217 1549 1200 b 1163 1356 1321 1200 1163 1306 b 1263 1414 1163 1382 1231 1414 b 1264 1396 1271 1414 1264 1410 m 1244 1111 b 276 432 728 1111 276 592 b 332 365 276 378 304 375 b 290 357 322 360 311 357 b 190 472 240 357 189 406 b 1206 1149 196 732 726 1149 b 1625 797 1436 1149 1625 1049 b 461 -290 1625 364 971 -290 b 186 -62 296 -290 185 -193 b 1182 924 196 361 829 924 b 1331 821 1264 924 1331 885 b 1322 779 1331 808 1328 794 b 1217 846 1325 822 1264 846 b 275 -100 915 846 282 253 b 432 -226 275 -192 339 -226 b 1529 849 764 -226 1529 415 b 1244 1111 1529 1060 1389 1111 "},"Ó":{"ha":1453,"x_min":null,"x_max":null,"o":"m 1413 1429 b 1413 1447 1413 1443 1404 1447 b 1513 1389 1444 1447 1513 1415 b 1181 1233 1513 1339 1354 1233 b 1118 1250 1126 1233 1114 1250 b 1413 1429 1265 1250 1413 1376 m 1244 1111 b 276 432 728 1111 276 592 b 332 365 276 378 304 375 b 290 357 322 360 311 357 b 190 472 240 357 189 406 b 1206 1149 196 732 726 1149 b 1625 797 1436 1149 1625 1049 b 461 -290 1625 364 971 -290 b 186 -62 296 -290 185 -193 b 1182 924 196 361 829 924 b 1331 821 1264 924 1331 885 b 1322 779 1331 808 1328 794 b 1217 846 1325 822 1264 846 b 275 -100 915 846 282 253 b 432 -226 275 -192 339 -226 b 1529 849 764 -226 1529 415 b 1244 1111 1529 1060 1389 1111 "},"Ô":{"ha":1453,"x_min":null,"x_max":null,"o":"m 1244 1111 b 276 432 728 1111 276 592 b 332 365 276 378 304 375 b 290 357 322 360 311 357 b 190 472 240 357 189 406 b 1206 1149 196 732 726 1149 b 1625 797 1436 1149 1625 1049 b 461 -290 1625 364 971 -290 b 186 -62 296 -290 185 -193 b 1182 924 196 361 829 924 b 1331 821 1264 924 1331 885 b 1322 779 1331 808 1328 794 b 1217 846 1325 822 1264 846 b 275 -100 915 846 282 253 b 432 -226 275 -192 339 -226 b 1529 849 764 -226 1529 415 b 1244 1111 1529 1060 1389 1111 m 1435 1388 b 1511 1204 1417 1325 1460 1224 b 1506 1199 1511 1204 1515 1199 b 1344 1332 1467 1197 1367 1253 b 1049 1229 1249 1261 1115 1228 b 1032 1233 1042 1226 1028 1233 b 1368 1428 1154 1256 1299 1347 b 1435 1388 1375 1438 1440 1403 "},"Õ":{"ha":1453,"x_min":null,"x_max":null,"o":"m 1206 1264 b 1161 1269 1192 1267 1178 1269 b 1063 1213 1125 1269 1085 1257 b 1192 1344 1049 1269 1103 1344 b 1390 1267 1278 1344 1324 1286 b 1576 1347 1460 1247 1546 1308 b 1385 1213 1554 1301 1474 1207 b 1206 1264 1324 1217 1251 1254 m 1244 1111 b 276 432 728 1111 276 592 b 332 365 276 378 304 375 b 290 357 322 360 311 357 b 190 472 240 357 189 406 b 1206 1149 196 732 726 1149 b 1625 797 1436 1149 1625 1049 b 461 -290 1625 364 971 -290 b 186 -62 296 -290 185 -193 b 1182 924 196 361 829 924 b 1331 821 1264 924 1331 885 b 1322 779 1331 808 1328 794 b 1217 846 1325 822 1264 846 b 275 -100 915 846 282 253 b 432 -226 275 -192 339 -226 b 1529 849 764 -226 1529 415 b 1244 1111 1529 1060 1389 1111 "},"Ö":{"ha":1453,"x_min":null,"x_max":null,"o":"m 1319 1332 b 1197 1224 1276 1331 1211 1225 b 1146 1279 1169 1224 1149 1257 b 1232 1379 1143 1315 1194 1375 b 1319 1332 1257 1381 1310 1357 m 1494 1319 b 1374 1214 1453 1319 1388 1215 b 1321 1268 1347 1213 1324 1246 b 1407 1368 1319 1306 1369 1364 b 1494 1319 1433 1369 1486 1344 m 1244 1111 b 276 432 728 1111 276 592 b 332 365 276 378 304 375 b 290 357 322 360 311 357 b 190 472 240 357 189 406 b 1206 1149 196 732 726 1149 b 1625 797 1436 1149 1625 1049 b 461 -290 1625 364 971 -290 b 186 -62 296 -290 185 -193 b 1182 924 196 361 829 924 b 1331 821 1264 924 1331 885 b 1322 779 1331 808 1328 794 b 1217 846 1325 822 1264 846 b 275 -100 915 846 282 253 b 432 -226 275 -192 339 -226 b 1529 849 764 -226 1529 415 b 1244 1111 1529 1060 1389 1111 "},"Ø":{"ha":1453,"x_min":null,"x_max":null,"o":"m 1275 1111 b 307 432 758 1111 307 592 b 363 365 307 378 335 375 b 321 357 353 360 342 357 b 221 472 271 357 219 406 b 1236 1149 226 732 757 1149 b 1529 1069 1349 1149 1453 1124 b 1706 1164 1607 1126 1668 1161 b 1819 1115 1756 1168 1779 1154 b 1600 993 1788 1126 1708 1078 b 1656 797 1635 942 1656 878 b 492 -290 1656 364 1001 -290 b 372 -271 447 -290 407 -283 b 240 -485 290 -376 240 -453 b 463 -432 240 -540 439 -442 b 257 -542 421 -467 313 -533 b 185 -472 221 -547 185 -511 b 297 -231 185 -422 228 -336 b 217 -62 246 -189 215 -131 b 1213 924 226 361 860 924 b 1318 896 1254 924 1290 914 b 1492 1040 1381 951 1439 1000 b 1275 1111 1438 1094 1356 1111 m 1544 949 b 411 -222 1213 671 681 114 b 463 -226 426 -225 443 -226 b 1560 849 794 -226 1560 415 b 1544 949 1560 886 1554 919 m 332 -181 b 1261 844 542 118 942 551 b 1247 846 1256 846 1251 846 b 306 -100 946 846 313 253 b 332 -181 306 -135 315 -161 "},"Ù":{"ha":1690,"x_min":null,"x_max":null,"o":"m 1646 1288 b 1940 1108 1646 1235 1793 1108 b 1878 1092 1944 1108 1932 1092 b 1546 1247 1704 1092 1546 1197 b 1646 1306 1546 1274 1614 1306 b 1646 1288 1654 1306 1646 1301 m 1960 811 b 1446 -86 1740 556 1446 140 b 1525 -151 1446 -118 1461 -151 b 1703 -97 1590 -151 1654 -121 b 1517 -183 1683 -118 1597 -183 b 1357 -49 1424 -183 1357 -146 b 1578 499 1357 119 1497 385 b 638 -203 1367 297 811 -203 b 549 -110 603 -203 549 -144 b 1310 1051 549 113 1310 869 b 1185 1132 1310 1118 1246 1132 b 140 388 821 1132 140 532 b 172 356 140 375 147 356 b 224 363 192 356 217 361 b 142 322 208 346 176 322 b 56 413 71 322 56 382 b 1169 1165 56 708 800 1165 b 1356 996 1271 1165 1356 1118 b 669 -114 1356 728 669 1 b 1525 504 756 -124 1313 299 b 1800 810 1596 574 1700 693 b 2031 1054 1886 911 1974 1004 b 2132 1113 2054 1076 2106 1113 b 2247 1010 2182 1113 2239 1067 b 2210 1028 2238 1025 2222 1029 b 1960 811 2168 1028 2071 939 "},"Ú":{"ha":1690,"x_min":null,"x_max":null,"o":"m 1779 1256 b 1779 1274 1779 1269 1768 1274 b 1878 1215 1810 1274 1878 1242 b 1546 1060 1878 1165 1719 1060 b 1483 1076 1492 1060 1479 1076 b 1779 1256 1631 1076 1779 1203 m 1960 811 b 1446 -86 1740 556 1446 140 b 1525 -151 1446 -118 1461 -151 b 1703 -97 1590 -151 1654 -121 b 1517 -183 1683 -118 1597 -183 b 1357 -49 1424 -183 1357 -146 b 1578 499 1357 119 1497 385 b 638 -203 1367 297 811 -203 b 549 -110 603 -203 549 -144 b 1310 1051 549 113 1310 869 b 1185 1132 1310 1118 1246 1132 b 140 388 821 1132 140 532 b 172 356 140 375 147 356 b 224 363 192 356 217 361 b 142 322 208 346 176 322 b 56 413 71 322 56 382 b 1169 1165 56 708 800 1165 b 1356 996 1271 1165 1356 1118 b 669 -114 1356 728 669 1 b 1525 504 756 -124 1313 299 b 1800 810 1596 574 1700 693 b 2031 1054 1886 911 1974 1004 b 2132 1113 2054 1076 2106 1113 b 2247 1010 2182 1113 2239 1067 b 2210 1028 2238 1025 2222 1029 b 1960 811 2168 1028 2071 939 "},"Û":{"ha":1690,"x_min":null,"x_max":null,"o":"m 1960 811 b 1446 -86 1740 556 1446 140 b 1525 -151 1446 -118 1461 -151 b 1703 -97 1590 -151 1654 -121 b 1517 -183 1683 -118 1597 -183 b 1357 -49 1424 -183 1357 -146 b 1578 499 1357 119 1497 385 b 638 -203 1367 297 811 -203 b 549 -110 603 -203 549 -144 b 1310 1051 549 113 1310 869 b 1185 1132 1310 1118 1246 1132 b 140 388 821 1132 140 532 b 172 356 140 375 147 356 b 224 363 192 356 217 361 b 142 322 208 346 176 322 b 56 413 71 322 56 382 b 1169 1165 56 708 800 1165 b 1356 996 1271 1165 1356 1118 b 669 -114 1356 728 669 1 b 1525 504 756 -124 1313 299 b 1800 810 1596 574 1700 693 b 2031 1054 1886 911 1974 1004 b 2132 1113 2054 1076 2106 1113 b 2247 1010 2182 1113 2239 1067 b 2210 1028 2238 1025 2222 1029 b 1960 811 2168 1028 2071 939 m 1821 1299 b 1897 1115 1803 1236 1846 1135 b 1892 1110 1897 1115 1901 1110 b 1731 1243 1853 1108 1753 1164 b 1435 1140 1635 1172 1501 1139 b 1418 1144 1428 1138 1414 1144 b 1754 1339 1540 1167 1685 1258 b 1821 1299 1761 1349 1826 1314 "},"Ü":{"ha":1690,"x_min":null,"x_max":null,"o":"m 1726 1194 b 1603 1086 1683 1193 1617 1088 b 1551 1142 1575 1086 1554 1119 b 1639 1242 1549 1178 1600 1238 b 1726 1194 1663 1243 1715 1219 m 1900 1182 b 1781 1076 1858 1182 1793 1078 b 1728 1131 1753 1075 1731 1108 b 1814 1231 1726 1168 1776 1226 b 1900 1182 1840 1232 1892 1207 m 1960 811 b 1446 -86 1740 556 1446 140 b 1525 -151 1446 -118 1461 -151 b 1703 -97 1590 -151 1654 -121 b 1517 -183 1683 -118 1597 -183 b 1357 -49 1424 -183 1357 -146 b 1578 499 1357 119 1497 385 b 638 -203 1367 297 811 -203 b 549 -110 603 -203 549 -144 b 1310 1051 549 113 1310 869 b 1185 1132 1310 1118 1246 1132 b 140 388 821 1132 140 532 b 172 356 140 375 147 356 b 224 363 192 356 217 361 b 142 322 208 346 176 322 b 56 413 71 322 56 382 b 1169 1165 56 708 800 1165 b 1356 996 1271 1165 1356 1118 b 669 -114 1356 728 669 1 b 1525 504 756 -124 1313 299 b 1800 810 1596 574 1700 693 b 2031 1054 1886 911 1974 1004 b 2132 1113 2054 1076 2106 1113 b 2247 1010 2182 1113 2239 1067 b 2210 1028 2238 1025 2222 1029 b 1960 811 2168 1028 2071 939 "},"Ý":{"ha":1485,"x_min":null,"x_max":null,"o":"m 1622 1288 b 1624 1306 1622 1301 1614 1306 b 1724 1247 1654 1306 1724 1274 b 1390 1092 1724 1197 1564 1092 b 1328 1108 1335 1092 1324 1108 b 1622 1288 1475 1108 1622 1235 m 1478 653 b 829 158 1314 475 974 168 b 714 247 757 154 715 218 b 1156 1017 701 433 1165 888 b 1039 1101 1147 1108 1075 1103 b 211 399 688 1082 206 476 b 246 376 213 381 229 372 b 290 386 257 376 282 382 b 204 331 275 361 238 335 b 113 394 164 328 115 354 b 1049 1133 97 625 643 1106 b 1236 994 1138 1140 1231 1099 b 810 226 1250 785 801 342 b 858 211 811 210 836 208 b 1511 751 983 224 1292 490 b 1864 1149 1694 968 1808 1149 b 1974 1069 1921 1149 1972 1097 b 1943 1079 1960 1082 1950 1079 b 1326 199 1856 1074 1542 494 b 1279 129 1307 171 1290 147 b 1454 67 1326 121 1411 101 b 1453 65 1454 67 1454 65 b 1268 113 1388 88 1347 100 b 301 -587 1075 -160 617 -587 b 133 -467 213 -587 140 -557 b 992 142 115 -217 554 113 b 1082 144 1021 143 1053 144 b 1133 143 1100 144 1118 144 b 1478 653 1258 310 1378 483 m 276 -501 b 1121 121 539 -485 928 -142 b 1042 121 1100 124 1042 121 b 188 -437 713 121 171 -189 b 276 -501 190 -483 232 -504 "},"à":{"ha":649,"x_min":null,"x_max":null,"o":"m 454 801 b 747 622 454 749 601 622 b 685 606 753 622 740 606 b 353 761 511 606 353 710 b 453 818 353 788 421 818 b 454 801 463 818 454 815 m 318 115 b 399 265 335 167 372 231 b 28 -10 358 224 86 -10 b 15 -6 25 -10 18 -7 b -46 88 -10 7 -46 60 b 528 549 -46 239 272 549 b 650 461 581 549 650 526 b 624 396 650 438 638 414 b 619 397 621 394 618 396 b 635 447 626 410 635 426 b 567 507 635 489 608 510 b 294 368 486 503 385 444 b 72 74 163 256 58 81 b 81 74 74 72 76 72 b 393 290 126 89 321 229 b 543 419 418 313 508 400 b 613 340 571 433 618 357 b 439 114 606 354 481 203 b 425 67 431 94 425 78 b 797 363 513 92 711 282 b 807 354 804 369 811 358 b 376 -10 686 222 460 -10 b 353 -1 369 -10 363 -7 b 307 64 333 10 307 39 b 318 115 307 78 313 94 "},"á":{"ha":649,"x_min":null,"x_max":null,"o":"m 619 804 b 622 821 621 817 613 819 b 725 757 656 818 725 782 b 351 632 719 708 542 619 b 286 651 293 636 282 653 b 619 804 446 640 615 753 m 318 115 b 399 265 335 167 372 231 b 28 -10 358 224 86 -10 b 15 -6 25 -10 18 -7 b -46 88 -10 7 -46 60 b 528 549 -46 239 272 549 b 650 461 581 549 650 526 b 624 396 650 438 638 414 b 619 397 621 394 618 396 b 635 447 626 410 635 426 b 567 507 635 489 608 510 b 294 368 486 503 385 444 b 72 74 163 256 58 81 b 81 74 74 72 76 72 b 393 290 126 89 321 229 b 543 419 418 313 508 400 b 613 340 571 433 618 357 b 439 114 606 354 481 203 b 425 67 431 94 425 78 b 797 363 513 92 711 282 b 807 354 804 369 811 358 b 376 -10 686 222 460 -10 b 353 -1 369 -10 363 -7 b 307 64 333 10 307 39 b 318 115 307 78 313 94 "},"â":{"ha":649,"x_min":null,"x_max":null,"o":"m 658 769 b 735 586 640 707 683 606 b 729 581 735 586 739 581 b 568 714 690 579 590 635 b 272 611 472 643 339 610 b 256 615 265 608 251 615 b 592 810 378 638 522 729 b 658 769 599 819 664 785 m 318 115 b 399 265 335 167 372 231 b 28 -10 358 224 86 -10 b 15 -6 25 -10 18 -7 b -46 88 -10 7 -46 60 b 528 549 -46 239 272 549 b 650 461 581 549 650 526 b 624 396 650 438 638 414 b 619 397 621 394 618 396 b 635 447 626 410 635 426 b 567 507 635 489 608 510 b 294 368 486 503 385 444 b 72 74 163 256 58 81 b 81 74 74 72 76 72 b 393 290 126 89 321 229 b 543 419 418 313 508 400 b 613 340 571 433 618 357 b 439 114 606 354 481 203 b 425 67 431 94 425 78 b 797 363 513 92 711 282 b 807 354 804 369 811 358 b 376 -10 686 222 460 -10 b 353 -1 369 -10 363 -7 b 307 64 333 10 307 39 b 318 115 307 78 313 94 "},"ã":{"ha":649,"x_min":null,"x_max":null,"o":"m 463 660 b 406 667 446 664 425 667 b 319 617 372 667 339 657 b 447 749 304 674 360 749 b 606 685 508 749 568 694 b 647 679 619 681 635 679 b 790 756 714 679 765 724 b 599 622 768 710 688 610 b 463 660 536 631 508 650 m 318 115 b 399 265 335 167 372 231 b 28 -10 358 224 86 -10 b 15 -6 25 -10 18 -7 b -46 88 -10 7 -46 60 b 528 549 -46 239 272 549 b 650 461 581 549 650 526 b 624 396 650 438 638 414 b 619 397 621 394 618 396 b 635 447 626 410 635 426 b 567 507 635 489 608 510 b 294 368 486 503 385 444 b 72 74 163 256 58 81 b 81 74 74 72 76 72 b 393 290 126 89 321 229 b 543 419 418 313 508 400 b 613 340 571 433 618 357 b 439 114 606 354 481 203 b 425 67 431 94 425 78 b 797 363 513 92 711 282 b 807 354 804 369 811 358 b 376 -10 686 222 460 -10 b 353 -1 369 -10 363 -7 b 307 64 333 10 307 39 b 318 115 307 78 313 94 "},"ä":{"ha":649,"x_min":null,"x_max":null,"o":"m 565 744 b 444 638 524 743 458 639 b 392 693 418 638 394 671 b 479 793 390 729 440 789 b 565 744 503 794 557 771 m 740 733 b 619 628 699 732 633 629 b 568 682 593 626 569 660 b 654 782 565 718 615 778 b 740 733 679 783 731 757 m 318 115 b 399 265 335 167 372 231 b 28 -10 358 224 86 -10 b 15 -6 25 -10 18 -7 b -46 88 -10 7 -46 60 b 528 549 -46 239 272 549 b 650 461 581 549 650 526 b 624 396 650 438 638 414 b 619 397 621 394 618 396 b 635 447 626 410 635 426 b 567 507 635 489 608 510 b 294 368 486 503 385 444 b 72 74 163 256 58 81 b 81 74 74 72 76 72 b 393 290 126 89 321 229 b 543 419 418 313 508 400 b 613 340 571 433 618 357 b 439 114 606 354 481 203 b 425 67 431 94 425 78 b 797 363 513 92 711 282 b 807 354 804 369 811 358 b 376 -10 686 222 460 -10 b 353 -1 369 -10 363 -7 b 307 64 333 10 307 39 b 318 115 307 78 313 94 "},"å":{"ha":649,"x_min":null,"x_max":null,"o":"m 540 678 b 694 757 615 678 692 757 b 697 751 696 757 697 756 b 521 607 697 726 603 607 b 440 686 471 607 440 633 b 656 892 440 776 564 892 b 722 829 692 892 722 875 b 694 758 722 794 694 758 b 708 822 692 758 708 790 b 678 860 708 847 694 860 b 525 692 628 860 525 744 b 540 678 525 685 528 678 m 318 115 b 399 265 335 167 372 231 b 28 -10 358 224 86 -10 b 15 -6 25 -10 18 -7 b -46 88 -10 7 -46 60 b 528 549 -46 239 272 549 b 650 461 581 549 650 526 b 624 396 650 438 638 414 b 619 397 621 394 618 396 b 635 447 626 410 635 426 b 567 507 635 489 608 510 b 294 368 486 503 385 444 b 72 74 163 256 58 81 b 81 74 74 72 76 72 b 393 290 126 89 321 229 b 543 419 418 313 508 400 b 613 340 571 433 618 357 b 439 114 606 354 481 203 b 425 67 431 94 425 78 b 797 363 513 92 711 282 b 807 354 804 369 811 358 b 376 -10 686 222 460 -10 b 353 -1 369 -10 363 -7 b 307 64 333 10 307 39 b 318 115 307 78 313 94 "},"ç":{"ha":475,"x_min":null,"x_max":null,"o":"m 90 74 b 131 50 90 51 118 49 b 626 361 258 64 492 251 b 636 354 631 364 640 358 b 175 11 538 261 338 74 b 118 -78 171 1 139 -46 b 182 -65 136 -71 160 -65 b 249 -142 226 -65 265 -85 b -203 -414 210 -271 -42 -389 b 157 -160 -137 -390 118 -257 b 39 -161 182 -99 44 -161 b 25 -146 33 -161 24 -151 b 142 0 26 -137 101 -42 b 76 -10 119 -6 97 -10 b -25 76 32 -10 -18 32 b -22 118 -26 88 -26 101 b 132 364 -11 176 39 274 b 485 549 246 476 386 549 b 564 481 517 549 564 501 b 450 342 564 428 496 376 b 443 346 447 339 440 342 b 511 488 465 368 522 478 b 90 74 363 485 90 171 "},"è":{"ha":481,"x_min":null,"x_max":null,"o":"m 386 818 b 682 639 386 765 536 639 b 619 622 686 639 674 622 b 288 778 446 622 288 728 b 386 836 288 804 356 836 b 386 818 397 836 386 832 m 140 188 b 85 78 117 158 89 114 b 126 51 83 61 96 51 b 622 361 228 51 482 244 b 633 353 626 364 638 357 b 68 -10 528 256 253 -10 b -31 78 24 -10 -31 40 b -12 169 -31 111 -24 139 b 179 410 22 249 92 336 b 478 549 294 506 418 549 b 563 478 500 549 563 517 b 140 188 563 392 297 192 m 518 507 b 160 215 364 457 206 289 b 518 507 279 229 510 454 "},"é":{"ha":481,"x_min":null,"x_max":null,"o":"m 140 188 b 85 78 117 158 89 114 b 126 51 83 61 96 51 b 622 361 228 51 482 244 b 633 353 626 364 638 357 b 68 -10 528 256 253 -10 b -31 78 24 -10 -31 40 b -12 169 -31 111 -24 139 b 179 410 22 249 92 336 b 478 549 294 506 418 549 b 563 478 500 549 563 517 b 140 188 563 392 297 192 m 518 507 b 160 215 364 457 206 289 b 518 507 279 229 510 454 m 564 804 b 567 821 565 817 557 819 b 669 757 600 818 669 782 b 296 632 664 708 486 619 b 231 651 238 636 226 653 b 564 804 390 640 560 753 "},"ê":{"ha":481,"x_min":null,"x_max":null,"o":"m 590 760 b 657 594 571 703 613 611 b 651 589 657 594 661 589 b 501 700 618 588 519 628 b 239 617 414 636 300 615 b 222 621 231 614 218 621 b 526 796 333 640 464 724 b 590 760 536 806 594 774 m 140 188 b 85 78 117 158 89 114 b 126 51 83 61 96 51 b 622 361 228 51 482 244 b 633 353 626 364 638 357 b 68 -10 528 256 253 -10 b -31 78 24 -10 -31 40 b -12 169 -31 111 -24 139 b 179 410 22 249 92 336 b 478 549 294 506 418 549 b 563 478 500 549 563 517 b 140 188 563 392 297 192 m 518 507 b 160 215 364 457 206 289 b 518 507 279 229 510 454 "},"ë":{"ha":481,"x_min":null,"x_max":null,"o":"m 513 746 b 390 639 469 744 406 640 b 338 694 364 639 340 672 b 425 794 336 731 386 790 b 513 746 450 796 503 772 m 688 756 b 567 650 646 754 579 651 b 515 704 542 649 515 682 b 600 804 513 740 563 800 b 688 756 625 806 679 779 m 140 188 b 85 78 117 158 89 114 b 126 51 83 61 96 51 b 622 361 228 51 482 244 b 633 353 626 364 638 357 b 68 -10 528 256 253 -10 b -31 78 24 -10 -31 40 b -12 169 -31 111 -24 139 b 179 410 22 249 92 336 b 478 549 294 506 418 549 b 563 478 500 549 563 517 b 140 188 563 392 297 192 m 518 507 b 160 215 364 457 206 289 b 518 507 279 229 510 454 "},"ì":{"ha":313,"x_min":null,"x_max":null,"o":"m 304 804 b 599 625 304 751 453 625 b 538 608 604 625 592 608 b 206 764 363 608 206 714 b 304 822 206 790 274 822 b 304 804 314 822 304 818 m 36 -10 b 19 -8 31 -10 26 -10 b -37 58 -3 -1 -37 33 b 253 513 -37 139 164 442 b 274 521 260 519 268 521 b 361 431 306 521 361 465 b 343 433 361 425 354 432 b 79 65 286 439 96 122 b 451 363 164 88 367 281 b 464 354 461 369 468 358 b 36 -10 343 224 122 -3 "},"í":{"ha":313,"x_min":null,"x_max":null,"o":"m 467 815 b 468 833 467 829 460 833 b 568 775 500 833 568 801 b 236 619 568 725 410 619 b 174 636 182 619 168 636 b 467 815 321 636 467 763 m 36 -10 b 19 -8 31 -10 26 -10 b -37 58 -3 -1 -37 33 b 253 513 -37 139 164 442 b 274 521 260 519 268 521 b 361 431 306 521 361 465 b 343 433 361 425 354 432 b 79 65 286 439 96 122 b 451 363 164 88 367 281 b 464 354 461 369 468 358 b 36 -10 343 224 122 -3 "},"î":{"ha":313,"x_min":null,"x_max":null,"o":"m 36 -10 b 19 -8 31 -10 26 -10 b -37 58 -3 -1 -37 33 b 253 513 -37 139 164 442 b 274 521 260 519 268 521 b 361 431 306 521 361 465 b 343 433 361 425 354 432 b 79 65 286 439 96 122 b 451 363 164 88 367 281 b 464 354 461 369 468 358 b 36 -10 343 224 122 -3 m 453 760 b 519 594 433 703 475 611 b 514 589 519 594 524 589 b 364 700 481 588 382 628 b 101 617 276 636 163 615 b 85 621 93 614 81 621 b 389 796 196 640 326 724 b 453 760 399 806 457 774 "},"ï":{"ha":313,"x_min":null,"x_max":null,"o":"m 414 715 b 293 608 372 714 307 610 b 240 664 267 608 243 642 b 326 764 239 700 289 760 b 414 715 353 765 406 742 m 590 725 b 468 619 547 724 482 621 b 417 674 443 618 418 651 b 503 774 414 710 464 769 b 590 725 528 775 579 749 m 36 -10 b 19 -8 31 -10 26 -10 b -37 58 -3 -1 -37 33 b 253 513 -37 139 164 442 b 274 521 260 519 268 521 b 361 431 306 521 361 465 b 343 433 361 425 354 432 b 79 65 286 439 96 122 b 451 363 164 88 367 281 b 464 354 461 369 468 358 b 36 -10 343 224 122 -3 "},"ñ":{"ha":649,"x_min":null,"x_max":null,"o":"m 457 658 b 400 665 440 663 419 665 b 314 615 367 665 333 656 b 442 747 299 672 354 747 b 600 683 503 747 563 693 b 642 678 614 679 629 678 b 785 754 708 678 760 722 b 593 621 763 708 682 608 b 457 658 531 629 503 649 m 686 451 b 432 65 650 424 435 131 b 807 363 519 89 718 279 b 818 354 815 369 822 358 b 388 -7 697 222 471 -7 b 344 22 374 -7 360 6 b 319 76 331 40 319 61 b 553 453 319 156 481 388 b 132 122 439 401 235 233 b 82 64 115 104 97 83 b 56 -28 44 19 35 -18 b -29 47 14 -37 -19 7 b 8 158 -33 57 -25 94 b 140 369 42 224 94 306 b 288 542 190 440 251 514 b 307 549 293 547 301 549 b 393 460 340 549 393 494 b 376 463 393 454 388 461 b 265 351 358 464 308 406 b 107 124 200 265 128 163 b 178 201 122 146 149 174 b 625 542 333 354 578 542 b 686 451 658 542 703 467 "},"ò":{"ha":551,"x_min":null,"x_max":null,"o":"m 479 804 b 774 625 479 751 628 625 b 713 608 778 625 767 608 b 381 764 538 608 381 714 b 479 822 381 790 447 822 b 479 804 489 822 479 818 m 592 521 b 557 525 578 522 567 525 b 93 24 306 525 15 57 b 463 356 171 -8 369 214 b 447 424 456 368 442 410 b 511 481 451 438 493 479 b 543 467 525 482 540 471 b 658 396 569 424 603 392 b 818 457 751 404 803 458 b 688 369 811 438 756 392 b 606 357 657 360 628 357 b 564 363 585 357 571 360 b 92 -14 526 178 239 -22 b -14 96 28 -10 -14 43 b 510 549 -14 322 290 549 b 594 525 563 549 585 533 b 592 521 601 521 597 521 "},"ó":{"ha":551,"x_min":null,"x_max":null,"o":"m 606 814 b 607 832 606 828 597 832 b 706 774 638 832 706 800 b 374 618 706 724 547 618 b 313 635 319 618 306 635 b 606 814 458 635 606 761 m 592 521 b 557 525 578 522 567 525 b 93 24 306 525 15 57 b 463 356 171 -8 369 214 b 447 424 456 368 442 410 b 511 481 451 438 493 479 b 543 467 525 482 540 471 b 658 396 569 424 603 392 b 818 457 751 404 803 458 b 688 369 811 438 756 392 b 606 357 657 360 628 357 b 564 363 585 357 571 360 b 92 -14 526 178 239 -22 b -14 96 28 -10 -14 43 b 510 549 -14 322 290 549 b 594 525 563 549 585 533 b 592 521 601 521 597 521 "},"ô":{"ha":551,"x_min":null,"x_max":null,"o":"m 592 521 b 557 525 578 522 567 525 b 93 24 306 525 15 57 b 463 356 171 -8 369 214 b 447 424 456 368 442 410 b 511 481 451 438 493 479 b 543 467 525 482 540 471 b 658 396 569 424 603 392 b 818 457 751 404 803 458 b 688 369 811 438 756 392 b 606 357 657 360 628 357 b 564 363 585 357 571 360 b 92 -14 526 178 239 -22 b -14 96 28 -10 -14 43 b 510 549 -14 322 290 549 b 594 525 563 549 585 533 b 592 521 601 521 597 521 m 621 769 b 697 586 603 707 646 606 b 692 581 697 586 701 581 b 531 714 653 579 553 635 b 235 611 435 643 301 610 b 218 615 228 608 214 615 b 554 810 340 638 485 729 b 621 769 561 819 626 785 "},"õ":{"ha":551,"x_min":null,"x_max":null,"o":"m 460 660 b 403 667 443 664 422 667 b 317 617 369 667 336 657 b 444 749 301 674 357 749 b 603 685 506 749 565 694 b 644 679 617 681 632 679 b 788 756 711 679 763 724 b 596 622 765 710 685 610 b 460 660 533 631 506 650 m 592 521 b 557 525 578 522 567 525 b 93 24 306 525 15 57 b 463 356 171 -8 369 214 b 447 424 456 368 442 410 b 511 481 451 438 493 479 b 543 467 525 482 540 471 b 658 396 569 424 603 392 b 818 457 751 404 803 458 b 688 369 811 438 756 392 b 606 357 657 360 628 357 b 564 363 585 357 571 360 b 92 -14 526 178 239 -22 b -14 96 28 -10 -14 43 b 510 549 -14 322 290 549 b 594 525 563 549 585 533 b 592 521 601 521 597 521 "},"ö":{"ha":551,"x_min":null,"x_max":null,"o":"m 529 725 b 408 618 486 724 421 619 b 354 674 381 618 357 651 b 442 774 353 710 403 769 b 529 725 467 775 519 751 m 704 735 b 583 629 663 733 597 631 b 531 683 557 628 532 661 b 617 783 529 719 579 779 b 704 735 642 785 694 758 m 592 521 b 557 525 578 522 567 525 b 93 24 306 525 15 57 b 463 356 171 -8 369 214 b 447 424 456 368 442 410 b 511 481 451 438 493 479 b 543 467 525 482 540 471 b 658 396 569 424 603 392 b 818 457 751 404 803 458 b 688 369 811 438 756 392 b 606 357 657 360 628 357 b 564 363 585 357 571 360 b 92 -14 526 178 239 -22 b -14 96 28 -10 -14 43 b 510 549 -14 322 290 549 b 594 525 563 549 585 533 b 592 521 601 521 597 521 "},"ø":{"ha":551,"x_min":null,"x_max":null,"o":"m 592 521 b 581 522 588 521 583 521 l 529 476 l 543 467 b 658 396 569 424 603 392 b 818 457 751 404 803 458 b 688 369 811 438 756 392 b 606 357 657 360 628 357 b 564 363 585 357 571 360 b 96 -14 526 179 244 -17 b 46 -100 65 -54 47 -86 b 54 -110 46 -104 49 -108 b 97 -94 71 -111 83 -104 b 51 -124 83 -111 67 -125 b 28 -93 39 -122 26 -111 b 61 -8 29 -74 42 -44 b -14 96 14 7 -14 51 b 510 549 -14 322 290 549 l 521 549 b 631 619 571 594 611 621 b 679 583 663 617 665 603 b 589 529 668 590 635 568 l 594 525 b 592 521 601 521 597 521 m 86 29 b 483 513 176 172 353 385 b 86 29 264 442 43 86 m 447 394 b 124 22 333 275 203 126 b 463 356 213 40 379 229 b 447 394 458 363 451 379 "},"ù":{"ha":665,"x_min":null,"x_max":null,"o":"m 396 807 b 690 628 396 754 543 628 b 628 611 694 628 682 611 b 296 767 454 611 296 717 b 396 825 296 793 364 825 b 396 807 404 825 396 821 m 326 126 b 454 353 351 190 404 289 b 44 -7 314 210 128 10 b 33 -7 42 -7 33 -7 b -31 64 13 -7 -31 31 b 124 374 -31 124 44 264 b 265 536 172 442 231 508 b 285 544 272 543 281 544 b 372 454 318 544 372 490 b 356 457 372 449 367 456 b 228 326 333 460 275 388 b 88 72 158 233 88 113 b 363 289 156 100 297 225 b 617 542 435 360 539 481 b 638 549 624 547 632 549 b 722 460 669 549 722 494 b 706 463 722 454 718 461 b 660 431 696 463 679 450 b 554 297 640 408 600 358 b 433 67 485 204 433 106 b 803 363 521 93 718 282 b 814 354 811 369 818 358 b 383 -10 693 222 467 -10 b 361 -1 376 -10 368 -7 b 311 67 339 10 311 42 b 326 126 311 81 319 106 "},"ú":{"ha":665,"x_min":null,"x_max":null,"o":"m 613 806 b 614 824 613 819 604 824 b 713 765 646 824 713 792 b 381 610 713 715 554 610 b 319 626 326 610 314 626 b 613 806 465 626 613 753 m 326 126 b 454 353 351 190 404 289 b 44 -7 314 210 128 10 b 33 -7 42 -7 33 -7 b -31 64 13 -7 -31 31 b 124 374 -31 124 44 264 b 265 536 172 442 231 508 b 285 544 272 543 281 544 b 372 454 318 544 372 490 b 356 457 372 449 367 456 b 228 326 333 460 275 388 b 88 72 158 233 88 113 b 363 289 156 100 297 225 b 617 542 435 360 539 481 b 638 549 624 547 632 549 b 722 460 669 549 722 494 b 706 463 722 454 718 461 b 660 431 696 463 679 450 b 554 297 640 408 600 358 b 433 67 485 204 433 106 b 803 363 521 93 718 282 b 814 354 811 369 818 358 b 383 -10 693 222 467 -10 b 361 -1 376 -10 368 -7 b 311 67 339 10 311 42 b 326 126 311 81 319 106 "},"û":{"ha":665,"x_min":null,"x_max":null,"o":"m 326 126 b 454 353 351 190 404 289 b 44 -7 314 210 128 10 b 33 -7 42 -7 33 -7 b -31 64 13 -7 -31 31 b 124 374 -31 124 44 264 b 265 536 172 442 231 508 b 285 544 272 543 281 544 b 372 454 318 544 372 490 b 356 457 372 449 367 456 b 228 326 333 460 275 388 b 88 72 158 233 88 113 b 363 289 156 100 297 225 b 617 542 435 360 539 481 b 638 549 624 547 632 549 b 722 460 669 549 722 494 b 706 463 722 454 718 461 b 660 431 696 463 679 450 b 554 297 640 408 600 358 b 433 67 485 204 433 106 b 803 363 521 93 718 282 b 814 354 811 369 818 358 b 383 -10 693 222 467 -10 b 361 -1 376 -10 368 -7 b 311 67 339 10 311 42 b 326 126 311 81 319 106 m 586 767 b 653 601 567 710 608 618 b 647 596 653 601 657 596 b 497 707 614 594 515 635 b 235 624 410 643 296 622 b 218 628 226 621 214 628 b 522 803 329 647 460 731 b 586 767 532 813 590 781 "},"ü":{"ha":665,"x_min":null,"x_max":null,"o":"m 517 725 b 397 618 475 724 410 619 b 343 674 369 618 347 651 b 431 774 342 710 392 769 b 517 725 456 775 508 751 m 693 735 b 571 629 651 733 586 631 b 519 683 546 628 521 661 b 606 783 517 719 568 779 b 693 735 631 785 683 758 m 326 126 b 454 353 351 190 404 289 b 44 -7 314 210 128 10 b 33 -7 42 -7 33 -7 b -31 64 13 -7 -31 31 b 124 374 -31 124 44 264 b 265 536 172 442 231 508 b 285 544 272 543 281 544 b 372 454 318 544 372 490 b 356 457 372 449 367 456 b 228 326 333 460 275 388 b 88 72 158 233 88 113 b 363 289 156 100 297 225 b 617 542 435 360 539 481 b 638 549 624 547 632 549 b 722 460 669 549 722 494 b 706 463 722 454 718 461 b 660 431 696 463 679 450 b 554 297 640 408 600 358 b 433 67 485 204 433 106 b 803 363 521 93 718 282 b 814 354 811 369 818 358 b 383 -10 693 222 467 -10 b 361 -1 376 -10 368 -7 b 311 67 339 10 311 42 b 326 126 311 81 319 106 "},"ý":{"ha":575,"x_min":null,"x_max":null,"o":"m 601 799 b 603 815 601 813 593 815 b 701 758 635 815 701 785 b 369 603 701 707 544 603 b 308 619 315 603 303 619 b 601 799 456 619 601 746 m 669 429 b 494 218 611 368 554 293 b 82 -467 385 83 165 -312 b 435 -118 192 -315 394 -131 b 442 -126 442 -118 442 -126 b 43 -643 242 -285 60 -576 b 28 -647 40 -646 35 -647 b -44 -551 -26 -653 -49 -576 b 15 -390 -39 -510 -11 -449 b 471 361 86 -232 275 136 b 51 -7 331 218 135 10 b 40 -7 47 -7 43 -7 b -24 64 19 -7 -24 31 b 131 374 -24 124 51 264 b 269 532 178 442 235 504 b 289 540 276 539 285 540 b 375 450 322 540 375 486 b 360 453 375 444 371 451 b 233 326 338 456 282 388 b 94 72 165 233 94 113 b 368 289 163 100 304 225 b 628 540 443 360 550 479 b 647 549 636 547 642 549 b 735 458 681 549 735 493 b 718 461 735 453 729 460 b 669 429 707 463 690 450 "},"ÿ":{"ha":575,"x_min":null,"x_max":null,"o":"m 522 726 b 401 619 481 725 415 621 b 349 675 374 619 351 653 b 436 775 347 711 399 771 b 522 726 460 776 513 753 m 699 736 b 578 631 656 735 592 632 b 525 685 551 629 526 663 b 611 785 522 721 572 781 b 699 736 638 786 689 760 m 669 429 b 494 218 611 368 554 293 b 82 -467 385 83 165 -312 b 435 -118 192 -315 394 -131 b 442 -126 442 -118 442 -126 b 43 -643 242 -285 60 -576 b 28 -647 40 -646 35 -647 b -44 -551 -26 -653 -49 -576 b 15 -390 -39 -510 -11 -449 b 471 361 86 -232 275 136 b 51 -7 331 218 135 10 b 40 -7 47 -7 43 -7 b -24 64 19 -7 -24 31 b 131 374 -24 124 51 264 b 269 532 178 442 235 504 b 289 540 276 539 285 540 b 375 450 322 540 375 486 b 360 453 375 444 371 451 b 233 326 338 456 282 388 b 94 72 165 233 94 113 b 368 289 163 100 304 225 b 628 540 443 360 550 479 b 647 549 636 547 642 549 b 735 458 681 549 735 493 b 718 461 735 453 729 460 b 669 429 707 463 690 450 "},"Ÿ":{"ha":1485,"x_min":null,"x_max":null,"o":"m 1504 1176 b 1382 1069 1463 1175 1397 1071 b 1331 1125 1356 1069 1333 1103 b 1417 1225 1328 1160 1379 1221 b 1504 1176 1443 1226 1496 1201 m 1681 1165 b 1558 1060 1638 1164 1571 1061 b 1507 1114 1533 1058 1510 1090 b 1593 1214 1504 1150 1554 1210 b 1681 1165 1619 1215 1671 1189 m 1478 653 b 829 158 1314 475 974 168 b 714 247 757 154 715 218 b 1156 1017 701 433 1165 888 b 1039 1101 1147 1108 1075 1103 b 211 399 688 1082 206 476 b 246 376 213 381 229 372 b 290 386 257 376 282 382 b 204 331 275 361 238 335 b 113 394 164 328 115 354 b 1049 1133 97 625 643 1106 b 1236 994 1138 1140 1231 1099 b 810 226 1250 785 801 342 b 858 211 811 210 836 208 b 1511 751 983 224 1292 490 b 1864 1149 1694 968 1808 1149 b 1974 1069 1921 1149 1972 1097 b 1943 1079 1960 1082 1950 1079 b 1326 199 1856 1074 1542 494 b 1279 129 1307 171 1290 147 b 1454 67 1326 121 1411 101 b 1453 65 1454 67 1454 65 b 1268 113 1388 88 1347 100 b 301 -587 1075 -160 617 -587 b 133 -467 213 -587 140 -557 b 992 142 115 -217 554 113 b 1082 144 1021 143 1053 144 b 1133 143 1100 144 1118 144 b 1478 653 1258 310 1378 483 m 276 -501 b 1121 121 539 -485 928 -142 b 1042 121 1100 124 1042 121 b 188 -437 713 121 171 -189 b 276 -501 190 -483 232 -504 "},"Š":{"ha":1344,"x_min":null,"x_max":null,"o":"m 1281 1196 b 1171 1365 1281 1256 1186 1365 b 1179 1371 1171 1365 1168 1371 b 1335 1274 1213 1371 1306 1307 b 1593 1342 1381 1297 1525 1342 b 1606 1335 1599 1342 1611 1335 b 1317 1181 1588 1335 1317 1206 b 1281 1196 1317 1178 1281 1185 m 67 -162 b 183 -218 67 -217 139 -218 b 1213 342 518 -218 1213 142 b 961 517 1213 428 1097 479 b 606 710 794 563 606 588 b 1257 1136 606 943 1054 1129 b 1467 1003 1383 1140 1468 1110 b 1074 658 1464 838 1221 658 b 1006 700 1047 658 1006 669 b 1088 833 1006 757 1060 817 b 1058 761 1067 810 1058 781 b 1074 753 1058 753 1067 753 b 1421 1035 1132 753 1403 908 b 1336 1092 1428 1079 1389 1092 b 1286 1089 1321 1092 1304 1090 b 700 697 1108 1069 700 840 b 974 543 700 617 833 582 b 1293 294 1131 500 1293 449 b 222 -307 1293 -10 600 -307 b -3 -171 131 -307 -3 -281 b 804 363 -3 35 625 367 b 67 -162 436 263 67 -60 "},"š":{"ha":393,"x_min":null,"x_max":null,"o":"m 390 660 b 283 829 390 719 296 829 b 290 835 283 829 281 835 b 444 738 324 835 415 771 b 703 806 492 761 636 806 b 718 799 711 806 722 799 b 429 644 699 799 429 669 b 390 660 429 642 390 649 m 475 493 b 178 301 411 499 196 367 b 219 243 172 278 206 256 b 638 399 442 368 619 399 b 646 392 640 399 646 396 b 232 225 658 388 383 315 b 281 142 250 211 285 171 b -12 -22 261 51 78 -22 b -65 33 -43 -22 -58 3 b 192 229 -61 93 143 210 b 107 360 176 249 94 299 b 451 569 129 465 329 569 b 504 465 490 569 508 506 b 378 363 503 446 415 363 b 375 368 376 363 374 368 b 475 493 379 368 472 465 m 197 206 b -29 49 114 158 11 89 b 197 206 25 64 197 153 "},"œ":{"ha":839,"x_min":null,"x_max":null,"o":"m 493 188 b 438 78 469 158 442 114 b 479 51 436 61 449 51 b 975 361 581 51 836 244 b 986 353 981 364 990 357 b 421 -10 881 256 606 -10 b 322 69 379 -10 329 33 b 92 -14 240 15 153 -17 b -14 96 28 -10 -14 43 b 510 549 -14 322 290 549 b 594 525 563 549 585 533 b 592 521 601 521 597 521 b 557 525 578 522 567 525 b 93 24 306 525 15 57 b 393 261 154 -1 293 133 b 425 303 403 275 414 289 b 463 356 439 321 450 339 b 447 424 456 368 442 410 b 511 481 451 438 493 479 b 543 467 525 482 540 471 l 565 435 b 831 549 671 513 776 549 b 915 478 853 549 915 517 b 493 188 915 392 650 192 m 871 507 b 513 215 717 457 558 289 b 871 507 632 229 863 454 "},"Œ":{"ha":2094,"x_min":null,"x_max":null,"o":"m 2339 993 b 1951 656 2331 833 2106 656 b 1892 715 1921 656 1889 688 b 1990 808 1893 743 1960 797 b 1954 744 1971 789 1943 744 b 2306 1026 2010 744 2300 899 b 2151 1119 2308 1106 2214 1119 b 1543 686 1919 1119 1546 818 b 1838 536 1542 561 1742 536 b 1775 469 1851 536 1814 469 b 1197 165 1613 469 1361 321 b 1142 108 1181 146 1161 128 b 1040 -79 1081 40 1042 -26 b 1154 -181 1039 -135 1075 -172 b 2272 381 1429 -211 2024 179 b 2275 368 2275 381 2278 371 b 1118 -278 2108 207 1485 -286 b 908 -85 985 -275 899 -189 b 351 -290 728 -208 531 -290 b 78 -62 186 -290 76 -193 b 1072 924 86 361 719 924 b 1221 821 1156 924 1221 885 b 1213 779 1221 808 1218 794 b 1107 846 1215 822 1154 846 b 165 -100 806 846 174 253 b 322 -226 165 -192 229 -226 b 1419 849 654 -226 1419 415 b 1135 1111 1419 1060 1279 1111 b 168 432 618 1111 168 592 b 222 365 168 378 194 375 b 181 357 213 360 201 357 b 81 472 131 357 79 406 b 1096 1149 86 732 617 1149 b 1511 861 1304 1149 1481 1065 b 2129 1154 1654 1028 1938 1154 b 2339 993 2229 1154 2347 1133 m 1464 564 b 1369 385 1439 506 1408 444 b 1643 478 1475 438 1576 471 b 1464 564 1600 483 1515 510 "},"Ž":{"ha":1200,"x_min":null,"x_max":null,"o":"m 1122 1100 b 1013 1269 1122 1160 1028 1269 b 1019 1275 1013 1269 1010 1275 b 1176 1178 1054 1275 1147 1211 b 1435 1246 1222 1201 1367 1246 b 1447 1239 1440 1246 1451 1239 b 1158 1083 1429 1239 1158 1108 b 1122 1100 1158 1081 1122 1089 m 1650 1039 b 835 804 1649 1040 1151 821 b 644 863 721 799 644 825 b 844 1110 644 972 781 1081 b 735 964 815 1083 735 1010 b 872 914 735 921 801 915 b 1793 1113 1328 910 1750 1114 b 1807 1081 1801 1113 1818 1081 b 590 268 1817 1081 1194 800 b 221 -69 478 168 328 47 b 804 3 358 -22 597 4 b 1315 -139 1013 0 1211 -37 b 908 -47 1211 -74 1065 -49 b 28 -289 511 -43 28 -196 b -10 -206 26 -322 -10 -256 b 1650 1039 -7 28 1238 888 "},"ž":{"ha":544,"x_min":null,"x_max":null,"o":"m 421 606 b 313 775 421 665 325 775 b 319 781 313 775 308 781 b 475 683 353 781 446 717 b 732 751 521 707 667 751 b 749 744 740 751 753 744 b 457 589 728 744 457 615 b 421 606 457 588 421 594 m 265 550 b 421 468 246 504 335 463 b 601 542 504 474 592 524 b 669 433 613 558 688 461 b 90 97 564 419 176 192 b 239 125 121 114 178 125 b 513 1 344 125 467 93 b 507 -7 517 -8 513 -14 b 271 82 474 51 406 82 b 10 -14 129 82 32 -14 b -62 79 -11 -14 -74 58 b 478 453 -3 190 344 414 b 335 433 438 440 383 433 b 211 456 279 433 229 442 b 265 550 178 483 219 539 "},"ł":{"ha":335,"x_min":null,"x_max":null,"o":"m 104 433 b 46 458 88 432 53 438 b 263 586 38 481 164 546 b 464 867 335 693 406 789 b 581 993 506 921 546 965 b 632 1021 600 1010 618 1021 b 739 960 708 1025 765 944 b 539 776 690 982 599 851 b 439 642 504 733 472 690 b 682 675 556 669 676 683 b 676 671 682 674 682 672 b 397 582 564 643 472 613 l 353 517 b 93 68 231 333 126 157 b 465 363 154 61 385 288 b 475 354 474 369 481 358 b 82 -7 407 276 167 24 b 38 -1 65 -14 51 -8 b -12 54 26 4 -4 33 b -17 75 -14 57 -17 60 b 197 486 -17 115 42 242 b 104 433 144 457 115 435 "}}}
